<?xml version="1.0" encoding="utf-8"?>
<!-- Generator: Adobe Illustrator 16.0.0, SVG Export Plug-In . SVG Version: 6.00 Build 0)  -->
<!DOCTYPE svg PUBLIC "-//W3C//DTD SVG 1.1//EN" "http://www.w3.org/Graphics/SVG/1.1/DTD/svg11.dtd">
<svg version="1.1" id="图层_1" xmlns="http://www.w3.org/2000/svg" xmlns:xlink="http://www.w3.org/1999/xlink" x="0px" y="0px"
	 width="940.598px" height="154px" viewBox="0 0 940.598 154" enable-background="new 0 0 940.598 154" xml:space="preserve">
<g>
	<polygon fill="#FFFFFF" points="935.666,62.243 311.474,69.21 6.722,62.243 312.308,47.516 	"/>
	<g>
		<g>
			<g>
				<g>
					<path fill="none" stroke="#B5B5B6" stroke-linecap="round" stroke-linejoin="round" d="M130.015,10.243
						c0.054-0.106-3.1-1.564-3.093-1.576c0.031-0.061,13.375,5.396,13.634,4.889c0.066-0.129-14.232-7-14.131-7.2"/>
					<path fill="none" stroke="#B5B5B6" stroke-linecap="round" stroke-linejoin="round" d="M154.746,150.913
						c0.002-0.005-3.708-1.844-3.689-1.88c0.071-0.14,6.981,0.188,7.13-0.104c0.175-0.344-15.656-7.314-15.388-7.84
						c0.133-0.261,18.509,5.373,18.627,5.141c0.172-0.338-19.894-9.238-19.531-9.952c0.204-0.399,13.116,2.999,13.117,2.998
						c0.139-0.273-21.525-10.263-21.24-10.822c0.57-1.118,24.343,10.344,24.823,9.401c0.459-0.901-28.628-14.42-28.561-14.553
						c0.441-0.865,27.004,10.098,27.393,9.334c0.372-0.729-41.607-21.041-41.543-21.167c0.579-1.137,39.869,19.363,40.233,18.649
						c1.076-2.111-43.419-20.355-42.704-21.759c1.076-2.111,44.896,20.233,45.171,19.693c0.196-0.385-57.693-28.511-57.335-29.213
						c0.8-1.571,56.298,27.803,57.335,25.766c0.46-0.902-60.604-29.101-59.884-30.513c0.252-0.495,61.135,29.545,61.876,28.09
						c0.346-0.678-76.111-35.571-74.813-38.119c0.727-1.426,71.853,37.81,73.212,35.143c0.525-1.03-82.054-37.997-80.513-41.023
						c1.734-3.404,80.59,41.046,81.9,38.474c2.023-3.971-89.284-43.938-88.655-45.172c1.851-3.633,81.242,41.818,83.293,37.793
						c0.654-1.284-96.495-46.945-95.596-48.708c0.265-0.52,99.46,48.111,100.275,46.512c0.066-0.131-9.082-4.131-8.88-4.525
						c0.055-0.107,8.386-0.24,8.5-0.463c0.019-0.036-13.078-6.171-12.878-6.562c0.267-0.524,11.857,3.048,11.923,2.918
						c0.109-0.215-12.884-6.203-12.738-6.49c0.216-0.424,9.218,2.231,9.374,1.927c0.038-0.075-3.318-1.26-3.144-1.603
						c0.06-0.118,2.675-1.158,2.703-1.213c0.17-0.334-3.659-1.757-3.615-1.842c0.061-0.12,7.401-0.171,7.471-0.308
						c0.191-0.375-6.764-2.918-6.55-3.337c0.004-0.009,5.962-0.858,6.1-1.128c0.009-0.018-11.939-5.948-11.884-6.056
						c0.152-0.299,9.348,3.358,9.47,3.119c0.013-0.025-8.19-3.68-7.99-4.071c0.254-0.5,13.249,2.582,13.422,2.242
						c0.144-0.282-10.038-4.854-9.932-5.061c0.049-0.096,5.645,1.149,5.661,1.118c0.07-0.139-5.07-2.261-4.94-2.517
						c0.069-0.136,3.627-1.162,3.65-1.208c0.146-0.287-7.864-3.597-7.698-3.922c0.013-0.026,7.68,0.118,7.683,0.112
						c0.039-0.075-6.119-2.862-6.016-3.065c0.163-0.319,7.945,0.799,8.056,0.582c0.187-0.367-11.899-6.023-11.883-6.055
						c0.051-0.101,11.273,2.412,11.337,2.286c0.041-0.079-11.344-5.457-11.213-5.713c0.124-0.244,14.308,4.463,14.514,4.058
						c0.09-0.177-12.586-6.359-12.564-6.402c0.005-0.009,9.686,2.967,9.857,2.629c0.151-0.296-5.551-2.605-5.461-2.782
						c0.158-0.31,8.744,2.556,8.917,2.216c0.051-0.1-12.325-5.855-12.153-6.192c0.024-0.048,6.343-0.05,6.382-0.127
						c0.122-0.239-5.946-2.954-5.916-3.014c0.12-0.235,7.396,0.391,7.467,0.252c0.208-0.407-5.299-2.297-5.136-2.617
						c0.047-0.092,6.776,1.088,6.924,0.797c0.012-0.024-13.321-6.564-13.23-6.741c0.049-0.096,11.617,3.427,11.681,3.302
						c0.132-0.259-7.391-3.345-7.22-3.679c0.056-0.109,5.267-1.205,5.352-1.373c0.226-0.443-4.496-2.162-4.444-2.264
						c0.077-0.151,9.296,0.561,9.452,0.255c0.264-0.518-10.785-5.327-10.717-5.461c0.221-0.433,11.929,3.838,12.151,3.402
						c0.063-0.124-12.59-5.774-12.331-6.283c0.211-0.414,11.65,1.634,11.653,1.627c0.212-0.416-19.021-9.387-18.897-9.629
						c0.402-0.789,20.325,9.122,20.646,8.493c0.277-0.544-16.641-7.845-16.385-8.349c0.022-0.042,12.558,5.357,12.812,4.859
						c0.316-0.621-19.446-8.854-19.02-9.691c0.222-0.436,16.967,5.951,17.068,5.752c0.146-0.286-26.667-12.056-26.047-13.272
						c0.571-1.122,30.549,12.877,30.72,12.542C162.01,18.026,136.983,5.983,137,5.95c0.511-1.002,22.373,10.037,22.901,9.001
						c0.258-0.507-14.809-6.614-14.432-7.354c0.256-0.502,20.271,9.236,20.572,8.646c0.002-0.003-15.009-7.178-14.819-7.551
						c0.444-0.872,19.711,6.283,20.105,5.509c0.065-0.129-15.215-7.463-15.099-7.693c0.038-0.074,16.893,6.577,17.299,5.778
						c0.141-0.276-10.113-5.057-10.074-5.133c0.201-0.395,10.242,3.348,10.312,3.21c0.073-0.145-8.671-4.209-8.586-4.375
						c0.15-0.295,9.337,2.728,9.5,2.408c0.026-0.051-6.298-3.16-6.278-3.199"/>
					<path fill="none" stroke="#B5B5B6" stroke-linecap="round" stroke-linejoin="round" d="M7.779,12.621
						c0.013-0.024-4.099-2.012-4.068-2.072c0.155-0.303,8.265,2.715,8.275,2.696c0.188-0.368-3.194-1.452-3.123-1.591"/>
					<path fill="none" stroke="#B5B5B6" stroke-linecap="round" stroke-linejoin="round" d="M148.852,105.643
						c0.708-1.391-90.597-42.938-89.293-45.497c0.265-0.52,81.869,40.343,82.247,39.602c0.372-0.73-89.033-41.146-87.327-44.495
						c0.176-0.347,73.819,37.046,75.158,34.417c1.531-3.005-90.162-44.776-89.691-45.7c0.394-0.772,83.008,44.183,84.725,40.813
						c1.216-2.386-99.157-48.732-98.433-50.154c1.792-3.518,86.875,47.681,89.045,43.422c0.974-1.91-90.112-43.406-89.097-45.397
						c1.004-1.97,76.637,37.752,77.948,35.179c0.652-1.28-80.298-37.402-78.877-40.19c0.292-0.574,65.308,32.054,66.492,29.73
						c0.76-1.492-72.679-35.282-71.971-36.671C20.417,19.444,88.799,58.445,90.555,55C90.848,54.425,23.51,25,25.194,21.696
						c0.158-0.311,57.52,30.332,58.744,27.928C84.876,47.784,3.028,9.277,3.384,8.58C4.271,6.838,77.526,43.173,77.666,42.9
						C77.967,42.309,4.068,9.588,5.762,6.264c1.076-2.111,66.509,32.513,66.956,31.635c0.56-1.098-61.561-30.357-61.152-31.159
						c0.484-0.95,49.649,22.227,49.841,21.85c0.087-0.171-41.842-20.558-41.534-21.162c0.626-1.229,38.482,18.402,38.791,17.797
						C58.809,24.939,24.166,7.899,24.268,7.7c0.498-0.977,32.006,13.618,32.276,13.088c0.494-0.969-21.22-10.386-21.047-10.724
						c0.118-0.232,9.391,0.26,9.52,0.007c0.011-0.022-4.214-1.936-4.129-2.104"/>
					<path fill="none" stroke="#B5B5B6" stroke-linecap="round" stroke-linejoin="round" d="M39.837,139.948
						c0.166-0.325-16.188-7.585-15.919-8.111c0.171-0.337,14.708,6.187,14.823,5.963c0.147-0.289-10.972-5.429-10.906-5.558
						c0.316-0.62,13.377,3.915,13.676,3.328c0.246-0.482-15.582-7.288-15.319-7.805c0.31-0.608,13.434,5.32,13.501,5.188
						c0.036-0.07-12.082-5.665-11.883-6.055c0.119-0.232,7.176,0.692,7.184,0.677c0.089-0.175-4.92-2.101-4.755-2.423
						c0.067-0.133,6.642,0.846,6.752,0.629c0.079-0.154-8.788-4.144-8.652-4.408c0.073-0.144,6.599,0.085,6.736-0.184
						c0.043-0.084-6.726-2.939-6.529-3.326c0.126-0.247,9.847,0.858,9.926,0.702c0.167-0.328-8.908-4.027-8.701-4.434
						c0.123-0.241,5.822-1.377,5.945-1.618c0.134-0.263-7.197-3.351-7.069-3.602c0.132-0.261,8.743,2.756,8.82,2.604
						c0.04-0.079-11.654-5.857-11.622-5.921c0.058-0.114,9.466,2.2,9.473,2.187c0.222-0.437-4.893-2.472-4.884-2.488
						c0.13-0.256,8.429,1.048,8.608,0.695c0.151-0.296-8.679-3.97-8.496-4.329c0.003-0.005,5.331-1.128,5.391-1.247
						c0.029-0.057-8.173-3.887-8.061-4.107c0.102-0.2,11.346,1.579,11.437,1.399c0.16-0.313-15.498-7.615-15.384-7.838
						c0.16-0.313,9.639,3.761,9.781,3.482c0.131-0.258-8.844-4.211-8.725-4.445c0.246-0.481,13.217,5.392,13.446,4.943
						c0.186-0.363-13.125-6.55-13.069-6.659c0.082-0.159,7.62,2.393,7.759,2.118c0.117-0.23-2.909-1.376-2.866-1.46
						c0.045-0.089,2.442-1.271,2.458-1.303c0.131-0.258-3.095-1.2-2.943-1.5c0.117-0.229,6.175,0.305,6.292,0.073
						c0.198-0.389-10.092-4.942-10.012-5.102c0.131-0.257,8.356,0.202,8.431,0.056c0.2-0.393-9.543-4.587-9.432-4.806
						c0.055-0.108,8.124,0.189,8.239-0.036c0.099-0.193-6.264-2.97-6.175-3.146c0.092-0.181,9.687,1.216,9.778,1.036
						c0.185-0.361-11.804-5.866-11.744-5.983c0.331-0.65,13.839,4.517,13.91,4.378c0.082-0.161-11.422-5.479-11.284-5.75
						c0.005-0.01,10.736,3.455,10.958,3.019c0.186-0.364-8.57-3.906-8.384-4.271c0.025-0.049,2.794-0.434,2.81-0.463
						c0.039-0.076-4.244-1.618-4.023-2.05c0.052-0.102,3.134-1.495,3.175-1.576c0.137-0.268-6.103-3.076-6.089-3.103
						c0.284-0.557,12.53,2.451,12.698,2.122c0.053-0.104-10.756-5.302-10.685-5.444c0.014-0.028,9.036,1.991,9.13,1.807
						c0.008-0.015-7.357-3.695-7.336-3.738c0.13-0.255,6.422,1.3,6.483,1.181c0.211-0.414-12.479-5.855-12.276-6.255
						c0.102-0.199,13.751,5.25,13.905,4.947c0.173-0.339-13.164-6.411-13.044-6.646c0.136-0.266,12.905,2.243,13.084,1.891
						c0.042-0.083-10.371-4.884-10.208-5.202c0.07-0.137,5.302-0.653,5.373-0.792c0.101-0.198-6.842-3.183-6.719-3.424
						c0.277-0.543,12.294,4.247,12.409,4.021c0.097-0.189-10.555-5.272-10.512-5.356"/>
					<path fill="none" stroke="#B5B5B6" stroke-linecap="round" stroke-linejoin="round" d="M15.373,151.868
						c0.021-0.041-3.372-1.64-3.34-1.702c0.096-0.188,4.828-1.65,4.881-1.754c0.152-0.299-4.612-2.028-4.482-2.283
						c0.254-0.499,12.274,2.962,12.319,2.873c0.001-0.002-7.176-3.29-7.028-3.581c0.285-0.559,17.069,4.912,17.315,4.429
						c0.227-0.445-11.365-5.702-11.329-5.772c0.218-0.428,14.38,3.42,14.425,3.332c0.1-0.196-14.062-6.367-13.739-7
						c0.235-0.461,26.439,10.232,26.93,9.27c0.179-0.352-22.558-10.971-22.346-11.386c0.525-1.031,27.589,11.095,27.637,11.001
						c0.735-1.443-30.376-15.14-30.239-15.408c0.707-1.387,37.322,17.104,37.996,15.782c0.042-0.082-8.32-3.87-8.17-4.163
						c0.06-0.117,3.933,0.563,4.019,0.395c0.049-0.096-3.11-1.417-3.043-1.55"/>
				</g>
				<g>
					<path fill="none" stroke="#3E3A39" stroke-linecap="round" stroke-linejoin="round" d="M217.467,28.723
						c0.001-0.002-2.5-1.249-2.49-1.269c0.05-0.098,4.763-1.051,4.868-1.256c0.09-0.176-9.799-4.654-9.662-4.923
						c0.126-0.248,17.589,4.889,17.702,4.669c0.091-0.179-11.542-5.405-11.35-5.783c0.072-0.142,4.562-1.361,4.562-1.361
						c0.038-0.074-4.009-1.852-3.932-2.003c0.172-0.337,7.82,1.095,7.965,0.811c0.064-0.127-2.508-1.254-2.498-1.272
						c0.076-0.149,4.305-2.264,4.372-2.396c0.029-0.057-3.81-1.928-3.804-1.938c0.056-0.109,4.223,0.388,4.258,0.32
						c0.075-0.147-0.567-0.166-0.517-0.264c0.153-0.301,6.984,0.334,7.024,0.257c0.014-0.028-7.77-3.895-7.743-3.945
						c0.205-0.403,15.24,4.976,15.506,4.453c0.059-0.115-5.789-2.724-5.697-2.903"/>
					<path fill="none" stroke="#3E3A39" stroke-linecap="round" stroke-linejoin="round" d="M225.011,82.564
						c0.071-0.139-17.134-8.311-16.964-8.644c0.235-0.463,12.77,3.522,12.785,3.493c0.283-0.556-7.502-3.559-7.396-3.769
						c0.033-0.065,7.291-0.195,7.373-0.356c0.158-0.31-7.164-3.279-7.014-3.574c0.117-0.229,11.602,3.163,11.712,2.947
						c0.238-0.468-14.479-6.774-14.234-7.253c0.223-0.439,10.985,1.874,11.211,1.431c0.13-0.256-11.827-5.858-11.759-5.991
						c0.181-0.354,12.662,4.03,12.854,3.653c0.079-0.155-9.253-4.207-9.048-4.61c0.204-0.4,10.11,0.777,10.235,0.532
						c0.122-0.238-6.509-3.313-6.507-3.316c0.043-0.084,11.182,3.561,11.347,3.237c0.1-0.197-10.656-5.382-10.637-5.42
						c0.097-0.191,12.115,4.008,12.342,3.563c0.05-0.097-5.406-2.491-5.299-2.7c0.07-0.138,9.042,3.229,9.212,2.895
						c0.022-0.044-5.919-2.759-5.815-2.963c0.002-0.003,4.432,0.063,4.483-0.037c0.094-0.185-5.776-2.792-5.715-2.912
						c0.035-0.069,12.694,3.36,12.813,3.127c0.06-0.117-6.893-3.283-6.8-3.465c0.064-0.126,10.304,2.033,10.34,1.962
						c0.031-0.06-1.663-0.591-1.559-0.794c0.217-0.426,10.499,3.27,10.582,3.106c0.02-0.038-6.991-3.507-6.969-3.551"/>
					<path fill="none" stroke="#3E3A39" stroke-linecap="round" stroke-linejoin="round" d="M271.303,83.102
						c0.124-0.242-17.03-8.114-16.802-8.561c0.043-0.086,14.178,5.073,14.24,4.95c0.056-0.109-13.419-6.204-13.164-6.707
						c0.024-0.047,10.913,2.134,11.096,1.776c0.214-0.421-15.507-7.737-15.44-7.867c0.075-0.147,16.49,6.855,16.817,6.213
						c0.149-0.293-14.035-6.932-13.946-7.106c0.186-0.365,9.601,3.501,9.826,3.059c0.125-0.245-9.73-4.637-9.6-4.892
						c0.126-0.247,10.529,1.234,10.693,0.911c0.095-0.186-10.946-5.067-10.74-5.472c0.037-0.073,9.117,0.87,9.268,0.573
						c0.199-0.389-20.159-9.815-19.974-10.177c0.207-0.406,22.708,11.204,23.274,10.092c0.069-0.135-14.523-6.418-14.126-7.198
						c0.032-0.063,12.23,4.844,12.479,4.356c0.158-0.31-15.716-7.861-15.657-7.978c0.201-0.394,17.627,5.531,17.659,5.469
						c0.052-0.103-17.105-7.991-16.813-8.566c0.269-0.528,17.269,6.595,17.38,6.376c0.115-0.226-17.146-8.529-17.062-8.694
						c0.12-0.235,13.037,3.214,13.084,3.121c0.024-0.048-12.386-6.097-12.299-6.267c0.208-0.408,13.237,5.031,13.339,4.83
						c0.05-0.099-12.725-6.397-12.69-6.466c0.25-0.49,16.541,5.405,16.676,5.14c0.271-0.531-11.542-5.647-11.447-5.833
						c0.096-0.189,7.643-0.688,7.749-0.895c0.027-0.053-11.374-5.288-11.169-5.691c0.272-0.533,13.881,4.073,14.061,3.719
						c0.127-0.249-17.204-8.187-16.97-8.646c0.084-0.166,12.054,3.137,12.172,2.906c0.027-0.053-12.777-5.89-12.526-6.382
						c0.121-0.237,11.654,2.453,11.736,2.291c0.256-0.503-10.136-4.34-9.803-4.995c0.083-0.164,10.419,3.396,10.591,3.059
						c0.268-0.525-16.713-8.23-16.598-8.457c0.058-0.114,18.442,5.796,18.701,5.29c0.395-0.774-24.487-12.338-24.431-12.448
						c0.233-0.458,22.457,9.316,22.968,8.312c0.142-0.279-20.851-9.979-20.59-10.491c0.08-0.157,15.158,6.229,15.33,5.894
						c0.223-0.438-13.909-6.843-13.81-7.037"/>
					<path fill="none" stroke="#3E3A39" stroke-linecap="round" stroke-linejoin="round" d="M259.243,90.148
						c0.029-0.058-4.24-2.045-4.193-2.137c0.083-0.164,7.403,2.319,7.459,2.211c0.082-0.16-5.315-2.618-5.278-2.689
						c0.321-0.63,13.566,4.021,13.869,3.426c0.287-0.563-17.512-8.162-17.204-8.766c0.411-0.807,17.645,7.521,17.734,7.345
						c0.051-0.101-16.848-7.886-16.565-8.44c0.271-0.532,15.731,5.078,15.75,5.042c0.173-0.34-15.013-6.861-14.694-7.487
						c0.214-0.421,19.807,8.146,20.157,7.46c0.175-0.344-21.394-10.161-21.094-10.748c0.287-0.564,24.39,10.142,24.928,9.086
						c0.012-0.023-2.751-1.269-2.697-1.375c0.093-0.183,7.305,0.467,7.364,0.352c0.019-0.037-0.186-0.039-0.164-0.083"/>
					<path fill="none" stroke="#3E3A39" stroke-linecap="round" stroke-linejoin="round" d="M220.554,91.563
						c0.054-0.107-5.608-2.655-5.526-2.816c0.159-0.313,8.491,0.301,8.578,0.13c0.296-0.581-12.301-5.641-12.048-6.139
						c0.402-0.79,18.954,6.432,19.025,6.291c0.002-0.005-18.892-8.817-18.565-9.46c0.448-0.879,26.192,9.911,26.58,9.15
						c0.111-0.219-5.371-2.694-5.354-2.729c0.08-0.156,5.231-1.312,5.248-1.344c0.024-0.048-1.623-0.633-1.544-0.787
						c0.078-0.152,9.25,0.662,9.412,0.344c0.023-0.046-0.964-0.423-0.937-0.477c0.051-0.101,2.041-2.03,2.045-2.04
						c0.07-0.137-1.771-0.87-1.759-0.896c0.152-0.299,8.664,1.194,8.809,0.91c0.014-0.027-2.695-1.25-2.645-1.348
						c0.021-0.042,0.535-1.271,0.566-1.33c0.046-0.09-2.925-1.333-2.861-1.458"/>
					<path fill="none" stroke="#3E3A39" stroke-linecap="round" stroke-linejoin="round" d="M365.018,24.997
						c0-0.001-1.396-0.705-1.394-0.71c0.042-0.082,3.672-1.65,3.759-1.822c0.105-0.206-10.816-5.116-10.656-5.43
						c0.125-0.245,17.417,4.798,17.528,4.581c0.179-0.351-20.598-9.562-20.22-10.303c0.248-0.486,15.784,4.357,15.785,4.356
						c0.098-0.193-14.505-6.892-14.303-7.288c0.417-0.82,18.106,6.85,18.458,6.159c0.22-0.433-12.8-6.442-12.767-6.505
						c0.112-0.22,7.214-0.703,7.313-0.896c0.057-0.112-6.9-3.492-6.891-3.511"/>
					<path fill="none" stroke="#3E3A39" stroke-linecap="round" stroke-linejoin="round" d="M336.116,18.67
						c0.064-0.126-15.646-7.592-15.492-7.894c0.268-0.526,14.417,4.367,14.434,4.333c0.261-0.513-6.515-3.075-6.416-3.27
						c0.034-0.066,7.353-0.162,7.435-0.325c0.116-0.227-4.107-1.819-3.996-2.036c0.086-0.17,8.737,1.633,8.819,1.473
						c0.131-0.258-9.511-4.513-9.376-4.777c0.116-0.228,5.589-1.145,5.706-1.374c0.034-0.067-4.283-2.14-4.266-2.173
						c0.056-0.109,4.015,0.577,4.074,0.461c0.009-0.017-0.897-0.402-0.875-0.445"/>
					<path fill="none" stroke="#3E3A39" stroke-linecap="round" stroke-linejoin="round" d="M314.819,21.378
						c0.009-0.018-2.616-1.291-2.599-1.324c0.017-0.033,5.841,0.731,5.865,0.684c0.016-0.031-3.808-1.763-3.736-1.904
						c0.012-0.023,5.457,1.509,5.549,1.327c0.089-0.175-8.403-4.213-8.376-4.268"/>
					<path fill="none" stroke="#3E3A39" stroke-linecap="round" stroke-linejoin="round" d="M337.437,81.574
						c0.173-0.34-16.887-7.908-16.605-8.461c0.185-0.362,15.818,6.774,15.941,6.533c0.159-0.312-11.962-5.921-11.892-6.06
						c0.356-0.698,14.948,4.808,15.284,4.147c0.275-0.541-16.974-7.919-16.679-8.498c0.348-0.683,15.031,6.154,15.106,6.006
						c0.041-0.08-13.647-6.395-13.421-6.839c0.151-0.297,9.075,1.666,9.085,1.646c0.104-0.205-6.754-2.966-6.562-3.344
						c0.09-0.176,8.707,1.988,8.854,1.7c0.095-0.186-10.856-5.132-10.695-5.449c0.099-0.194,8.864,1.357,9.048,0.995
						c0.053-0.104-9.06-4.016-8.817-4.493c0.16-0.313,12.338,2.18,12.439,1.982c0.212-0.416-11.503-5.213-11.241-5.728
						c0.173-0.34,8.492,0.107,8.666-0.233s-10.022-4.694-9.855-5.021c0.178-0.35,11.566,4.261,11.671,4.057
						c0.052-0.104-14.544-7.306-14.501-7.389c0.077-0.152,12.433,3.718,12.442,3.7c0.296-0.581-7.913-4.003-7.901-4.025
						c0.181-0.354,11.489,2.776,11.737,2.289c0.204-0.4-11.928-5.465-11.681-5.951c0.005-0.009,8.607,0.627,8.702,0.439
						c0.04-0.078-11.613-5.532-11.457-5.838c0.136-0.267,14.875,3.452,14.997,3.213c0.227-0.445-19.256-9.412-19.094-9.729
						c0.224-0.44,13.35,5.793,13.549,5.403c0.189-0.372-12.744-6.069-12.572-6.406c0.321-0.63,17.089,7.539,17.388,6.953
						c0.272-0.535-17.256-8.59-17.175-8.75c0.129-0.253,11.751,4.697,11.972,4.264c0.177-0.348-7.365-3.593-7.3-3.72
						c0.116-0.229,7.034,1.129,7.075,1.049c0.209-0.411-8.328-3.644-8.085-4.12c0.225-0.442,11.517,3.294,11.743,2.85
						c0.526-1.032-24.589-11.999-24.375-12.419c0.39-0.765,23.642,8.355,23.864,7.919c0.457-0.896-20.845-9.991-20.59-10.491
						c0.157-0.307,21.951,7.759,22.278,7.118c0.213-0.419-16.558-7.957-16.364-8.337c0.231-0.455,23.237,8.463,23.467,8.011
						c0.088-0.172-7.197-3.596-7.168-3.652c0.286-0.561,12.064,3.589,12.126,3.469c0.041-0.081-6.945-3.369-6.877-3.504
						c0.005-0.01,9.361,2.68,9.554,2.303c0.105-0.208-4.674-2.12-4.568-2.328c0.017-0.034,1.666-1.021,1.676-1.042
						c0.026-0.051-1.269-0.28-1.121-0.571c0.059-0.116,3.96,0.239,4.006,0.147c0.122-0.238-5.136-2.586-5.123-2.61"/>
					<path fill="none" stroke="#3E3A39" stroke-linecap="round" stroke-linejoin="round" d="M317.753,90.074
						c0.02-0.039-3.309-1.61-3.279-1.67c0.094-0.186,4.675-1.732,4.726-1.833c0.103-0.201-1.948-0.776-1.86-0.948
						c0.204-0.4,9.976,1.769,10.012,1.697c0.001-0.001-5.824-2.65-5.696-2.901c0.275-0.54,16.509,4.605,16.747,4.139
						c0.284-0.557-14.306-7.179-14.261-7.266c0.273-0.536,17.79,5.185,17.846,5.074c0.136-0.268-19.975-9.093-19.536-9.954
						c0.28-0.55,31.313,12.952,31.898,11.802c0.058-0.114-5.769-2.771-5.7-2.904c0.131-0.258,7.379,0.708,7.392,0.685
						c0.125-0.247-4.179-2.071-4.155-2.117c0.143-0.28,7.906,2.41,8.042,2.143c0.006-0.014-1.252-0.578-1.228-0.626"/>
					<path fill="none" stroke="#3E3A39" stroke-linecap="round" stroke-linejoin="round" d="M434.565,78.392
						c0.312-0.612-28.964-13.509-28.459-14.501c0.284-0.558,24,11.104,24.188,10.734c0.261-0.512-20.763-10.292-20.647-10.521
						c0.455-0.893,18.854,7.03,19.284,6.186c0.381-0.747-21.958-10.178-21.549-10.979c0.433-0.85,18.569,8.004,18.664,7.818
						c0.053-0.104-17.424-8.153-17.131-8.729c0.184-0.361,10.891,2.597,10.903,2.572c0.122-0.239-8.85-3.955-8.625-4.395
						c0.099-0.193,9.461,2.406,9.621,2.091c0.101-0.196-11.612-5.492-11.44-5.829c0.094-0.185,8.479,1.141,8.656,0.795
						c0.05-0.099-8.524-3.768-8.292-4.225c0.142-0.279,11.074,1.509,11.164,1.333c0.179-0.352-9.611-4.348-9.389-4.784
						c0.133-0.262,6.425-1.044,6.558-1.306c0.131-0.257-6.983-3.248-6.857-3.494c0.131-0.257,8.628,2.695,8.705,2.544
						c0.037-0.073-11.072-5.565-11.042-5.625c0.056-0.109,9.058,1.992,9.064,1.979c0.196-0.385-3.833-1.935-3.826-1.949
						c0.12-0.236,7.777,0.68,7.943,0.356c0.118-0.232-6.73-3.073-6.586-3.356c0.002-0.004,4.054-1.806,4.103-1.903
						c0.02-0.039-5.391-2.555-5.313-2.707c0.086-0.17,9.65,0.679,9.727,0.528c0.09-0.177-11.667-5.785-11.603-5.912
						c0.104-0.204,6.412,1.993,6.504,1.812c0.071-0.14-4.806-2.287-4.74-2.415c0.181-0.356,9.928,3.57,10.097,3.239
						c0.093-0.182-8.721-4.375-8.693-4.43c0.072-0.142,6.763,1.914,6.886,1.673c0.054-0.106-4.041-2.009-4.021-2.048
						c0.084-0.166,5.15,0.142,5.18,0.084c0.057-0.111-3.793-1.771-3.728-1.899c0.106-0.21,5.6-0.016,5.707-0.226
						c0.081-0.159-4.903-2.417-4.871-2.482c0.101-0.197,6.335-0.871,6.392-0.983c0.088-0.173-4.604-2.225-4.555-2.321
						c0.051-0.101,7.514-0.143,7.62-0.352c0.055-0.108-2.414-1.105-2.363-1.204c0.111-0.218,11.672,2.277,11.783,2.059
						c0.156-0.306-10.447-5.198-10.396-5.297c0.44-0.863,18.136,6.764,18.23,6.579c0.098-0.193-13.217-6.324-13.051-6.65
						c0.011-0.021,20.654,9.052,21.096,8.185c0.345-0.677-16.287-7.443-15.94-8.122c0.235-0.462,24.681,11.032,24.823,10.753
						c0.125-0.246-24.525-10.735-23.813-12.133c0.405-0.794,25.382,10.529,25.702,9.901c0.417-0.82-24.546-12.403-24.503-12.485
						c0.786-1.542,32.895,13.565,33.36,12.65c0.133-0.261-24.45-12.012-24.27-12.366c0.039-0.078,23.852,9.952,24.112,9.44
						c0.014-0.027-15.37-7.73-15.329-7.81c0.296-0.583,13.999,5.353,14.138,5.081c0.186-0.365-11.371-5.349-11.191-5.702"/>
					<path fill="none" stroke="#3E3A39" stroke-linecap="round" stroke-linejoin="round" d="M431.604,89.812
						c0.099-0.194-8.626-4.025-8.477-4.319c0.294-0.576,15.251,3.927,15.412,3.612c0.537-1.054-25.105-11.657-24.646-12.558
						c0.716-1.405,32.894,13.672,33.021,13.421c0.004-0.008-35.12-16.473-34.545-17.602c0.749-1.469,42.838,19.034,43.485,17.764
						c0.88-1.727-45.152-22.666-45.015-22.936c0.727-1.427,45.359,19.463,45.508,19.169c0.049-0.096-5.646-2.487-5.488-2.796
						c0.116-0.228,13.599,3.076,13.841,2.601c0.04-0.078-3.263-1.547-3.216-1.639c0.082-0.16,4.558-0.741,4.565-0.756
						c0.108-0.212-3.404-1.685-3.384-1.725c0.186-0.365,10.519,2.222,10.696,1.873c0.02-0.039-3.892-1.808-3.821-1.947
						c0.058-0.113,3.053-2.165,3.136-2.327c0.046-0.09-2.924-1.333-2.86-1.457"/>
				</g>
				<g>
					<path fill="none" stroke="#3E3A39" stroke-linecap="round" stroke-linejoin="round" d="M644.305,26.553
						c0.009-0.016-2.502-1.237-2.486-1.267c0.009-0.018,2.982-0.754,2.995-0.779c0.02-0.039-4.796-2.219-4.705-2.397
						c0.008-0.015,2.528-2.443,2.587-2.559c0.439-0.863-28.287-14.079-28.152-14.344c0.134-0.261,28.625,13.664,29.206,12.524
						c0.256-0.504-22.622-11.148-22.469-11.448c0.352-0.691,17.644,8.096,18.07,7.258c0.174-0.341-14.399-6.889-14.219-7.244
						c0.177-0.346,14.487,3.413,14.718,2.961c0.042-0.083-4.427-2.027-4.334-2.208"/>
					<path fill="none" stroke="#3E3A39" stroke-linecap="round" stroke-linejoin="round" d="M601.506,80.663
						c0.14-0.272-13.891-6.52-13.665-6.963c0.118-0.232,10.309,3.857,10.387,3.702c0.1-0.194-6.837-3.374-6.793-3.461
						c0.164-0.321,7.125,0.372,7.279,0.069c0.122-0.241-9.75-4.644-9.619-4.901c0.153-0.3,6.874,1.894,6.907,1.828
						c0.016-0.031-5.758-2.72-5.671-2.89c0.037-0.074,1.278-1.899,1.281-1.904c0.012-0.023-1.444-0.681-1.423-0.725"/>
					<path fill="none" stroke="#3E3A39" stroke-linecap="round" stroke-linejoin="round" d="M599.521,90.223
						c0.073-0.145-6.915-3.248-6.804-3.467c0.245-0.479,12.829,2.626,12.963,2.364c0.331-0.651-14.175-6.521-13.891-7.078
						c0.478-0.938,22.33,8.186,22.416,8.018c0.002-0.005-22.151-10.354-21.773-11.094c0.53-1.043,30.824,12.449,31.284,11.547
						c0.166-0.326-8.219-4.124-8.192-4.174c0.132-0.259,8.893,0.579,8.919,0.526c0.036-0.069-3.413-1.459-3.3-1.682
						c0.097-0.189,11.427,1.87,11.629,1.474c0.034-0.068-2.495-1.171-2.454-1.251c0.066-0.131,3.537-1.264,3.543-1.275
						c0.109-0.215-3.477-1.721-3.456-1.761c0.183-0.359,10.322,2.111,10.496,1.77c0.027-0.054-5.329-2.477-5.232-2.666
						c0.073-0.143,4.554-1.349,4.657-1.552c0.11-0.216-6.863-3.121-6.711-3.42c0.194-0.381,10.487,2.13,10.651,1.808
						c0.033-0.066-7.771-3.815-7.712-3.929c0.242-0.477,11.412,3.554,11.63,3.126c0.13-0.254-10.099-4.663-9.903-5.046
						c0.188-0.367,8.622,0.89,8.757,0.626c0.072-0.142-10.354-5.043-10.26-5.228c0.103-0.203,10.82,3.273,10.987,2.945
						c0.031-0.061-12.185-5.4-11.857-6.042c0.028-0.056,7.868,2.039,7.934,1.909c0.242-0.474-17.925-8.321-17.596-8.965
						c0.492-0.968,24.194,11.716,24.564,10.991c0.091-0.179-40.46-19.619-40.058-20.41c0.66-1.295,38.23,17.777,39.054,16.163
						c0.359-0.706-56.768-26.423-55.756-28.409c0.712-1.397,48.009,21.058,48.146,20.79c1.281-2.515-48.582-22.641-47.728-24.318
						c0.999-1.959,41.174,16.683,41.373,16.292c0.613-1.205-40.22-19.009-39.619-20.187c0.111-0.219,15.064,4.605,15.412,3.923
						c0.089-0.175-20.225-9.835-20.035-10.208c0.094-0.183,16.834,4.525,16.911,4.375c0.05-0.098-12.719-5.885-12.479-6.357
						c0.037-0.071,8.997,3.04,9.063,2.91c0.135-0.266-8.447-4.172-8.394-4.277c0.163-0.321,11.317,3.398,11.414,3.208
						c0.176-0.344-11.379-5.7-11.34-5.778c0.184-0.359,9.043,1.71,9.094,1.609c0.063-0.124-8.813-4.098-8.654-4.41
						c0.1-0.195,9.939,1.768,10.029,1.591c0.074-0.146-7.489-3.641-7.418-3.78c0.133-0.26,7.025,0.331,7.129,0.128
						c0.062-0.12-3.954-1.873-3.896-1.986c0.046-0.091,8.787,0.344,8.816,0.286c0.107-0.21-2.488-1.146-2.438-1.243
						c0.054-0.105,10.021,1.991,10.183,1.675c0.041-0.082-8.02-3.994-7.982-4.067c0.271-0.534,11.404,4.757,11.608,4.356
						c0.204-0.402-10.066-4.891-9.971-5.08"/>
					<path fill="none" stroke="#B5B5B6" stroke-linecap="round" stroke-linejoin="round" d="M744.334,29.276
						c0.01-0.02-2.699-1.331-2.682-1.366c0.014-0.026,4.659,0.117,4.679,0.079c0.026-0.05-6.234-2.884-6.115-3.116
						c0.009-0.018,3.99-1.666,4.062-1.807c0.199-0.391-14.629-7.303-14.568-7.423c0.069-0.136,15.242,6.155,15.544,5.563
						c0.374-0.733-31.956-15.732-31.733-16.169c0.538-1.056,26.59,13.21,27.241,11.931c0.279-0.548-24.382-11.703-24.091-12.275
						c0.301-0.59,23.983,8.654,24.376,7.883c0.143-0.279-16.883-7.835-16.573-8.444c0.06-0.117,14.287,3.729,14.529,3.253
						c0.073-0.145-8.503-4.163-8.435-4.298c0.085-0.167,9.669,3.757,9.901,3.3c0.005-0.009-1.004-0.452-0.979-0.5"/>
					<path fill="none" stroke="#B5B5B6" stroke-linecap="round" stroke-linejoin="round" d="M702.107,80.724
						c0.192-0.377-18.552-8.681-18.239-9.293c0.169-0.332,14.496,6.073,14.608,5.853c0.148-0.292-11.117-5.5-11.051-5.63
						c0.241-0.473,10.348,2.194,10.575,1.748c0.196-0.385-13.208-6.212-12.999-6.623c0.228-0.445,9.983,3.518,10.032,3.421
						c0.026-0.051-8.915-4.191-8.773-4.471c0.075-0.146,4.473-0.693,4.478-0.702c0.044-0.088-5.362-2.53-5.28-2.69
						c0.035-0.07,3.498,0.309,3.556,0.195c0.013-0.024-0.062,0.021-0.04-0.021"/>
					<path fill="none" stroke="#B5B5B6" stroke-linecap="round" stroke-linejoin="round" d="M694.678,89.591
						c0.06-0.118-6.016-2.839-5.924-3.019c0.284-0.559,14.817,3.694,14.974,3.389c0.366-0.719-16.029-7.393-15.716-8.007
						c0.523-1.028,24.343,9.23,24.437,9.047c0.003-0.006-24.16-11.303-23.753-12.103c0.572-1.123,33.086,13.688,33.58,12.717
						c0.664-1.303-33.955-17.046-33.852-17.248c0.553-1.085,34.802,13.994,34.915,13.771c0.056-0.107-6.651-2.951-6.475-3.299
						c0.128-0.25,14.831,3.762,15.097,3.24c0.059-0.116-5.885-2.826-5.815-2.963c0.127-0.249,7.153,0.592,7.164,0.569
						c0.201-0.394-7.369-3.663-7.332-3.736c0.258-0.506,14.253,4.291,14.498,3.809c0.05-0.097-9.829-4.572-9.652-4.918
						c0.136-0.269,8.974,1.128,9.168,0.746c0.19-0.375-11.854-5.386-11.589-5.904c0.292-0.573,15.379,4.825,15.625,4.342
						c0.057-0.111-13.232-6.504-13.136-6.693c0.365-0.717,16.827,6.586,17.155,5.942c0.208-0.409-16.134-7.444-15.819-8.061
						c0.328-0.646,14.729,4.252,14.966,3.789c0.122-0.239-18.73-9.15-18.571-9.462c0.19-0.374,19.285,7.933,19.593,7.329
						c0.081-0.159-36.958-16.681-36.089-18.388c0.124-0.242,32.165,14.968,32.453,14.402c0.686-1.346-52.47-24.426-51.536-26.258
						c1.197-2.349,57.891,30.19,58.789,28.428c0.128-0.252-56.982-27.622-56.411-28.742c0.96-1.885,55.064,27.282,56.263,24.932
						c0.414-0.813-64.716-30.094-63.551-32.38c0.854-1.675,57.273,25.845,57.438,25.523c1.496-2.937-57.354-26.756-56.356-28.715
						c1.332-2.615,54.4,23.586,54.666,23.065c0.786-1.543-53.251-25.231-52.482-26.741c0.421-0.826,53.572,26.605,54.882,24.035
						c0.318-0.624-60.018-28.904-59.34-30.235c0.177-0.346,30.849,11.836,30.994,11.551c0.118-0.232-27.142-12.418-26.57-13.539
						c0.073-0.146,17.677,7.63,17.812,7.367c0.262-0.513-17.181-8.497-17.077-8.701c0.257-0.503,17.383,6.625,17.535,6.328
						c0.315-0.62-17.692-8.84-17.622-8.979c0.299-0.585,14.314,4.477,14.398,4.312c0.115-0.226-14.314-6.579-14.025-7.146
						c0.149-0.293,14.643,4.278,14.778,4.011c0.141-0.276-12.361-5.967-12.228-6.23c0.215-0.421,11.165,2.598,11.332,2.27
						c0.116-0.228-8.328-3.972-8.219-4.188c0.067-0.132,12.473,2.254,12.515,2.17c0.191-0.374-6.41-3.049-6.323-3.222
						c0.072-0.14,13.142,3.714,13.356,3.292c0.063-0.125-11.539-5.739-11.482-5.851c0.343-0.673,14.224,6.322,14.48,5.819
						c0.276-0.543-13.198-6.403-13.068-6.658"/>
					<path fill="none" stroke="#3E3A39" stroke-linecap="round" stroke-linejoin="round" d="M839.036,15.943
						c0.041-0.082-2.556-1.29-2.551-1.3c0.029-0.056,12.738,4.682,12.981,4.205c0.044-0.085-11.243-5.563-11.176-5.695"/>
					<path fill="none" stroke="#3E3A39" stroke-linecap="round" stroke-linejoin="round" d="M867.626,82.947
						c0.015-0.03-17.894-8.837-17.78-9.06c0.142-0.278,13.588,3.924,13.887,3.339c0.188-0.368-16.479-7.689-16.194-8.251
						c0.134-0.262,18.601,5.421,18.72,5.188c0.118-0.232-14.358-6.697-14.108-7.188c0.115-0.226,7.582,0.179,7.582,0.178
						c0.068-0.134-9.294-4.391-9.154-4.665c0.282-0.553,12.501,3.71,12.738,3.244c0.173-0.338-9.626-4.842-9.601-4.892
						c0.13-0.256,8.423-0.047,8.538-0.272c0.102-0.199-11.806-5.973-11.788-6.006c0.146-0.286,10.454,3.701,10.545,3.523
						c0.266-0.521-8.701-3.998-8.524-4.344c0.247-0.486,11.049,2.463,11.112,2.339c0.041-0.08-15.065-7.492-14.991-7.639
						c0.2-0.391,14.848,4.759,15.107,4.25c0.082-0.161-9.04-4.288-8.911-4.541c0.041-0.082,10.899,2.42,11.022,2.179
						c0.054-0.106-15.232-7.26-15.029-7.658c0.128-0.252,13.312,5.215,13.552,4.744c0.076-0.15-15.363-7.274-15.139-7.714
						c0.335-0.659,16.441,5.748,16.695,5.25c0.266-0.522-14.817-7.346-14.735-7.508c0.195-0.382,9.398,0.675,9.613,0.252
						c0.077-0.15-9.501-4.584-9.396-4.788c0.034-0.069,14.189,2.914,14.297,2.703c0.092-0.18-12.306-5.587-12.03-6.129
						c0.078-0.153,11.814,1.622,11.975,1.307c0.027-0.054-17.13-8.003-16.837-8.579c0.367-0.72,15.995,5.217,16.086,5.04
						c0.182-0.358-18.541-8.846-18.298-9.323c0.358-0.703,14.86,5.358,15.117,4.853c0.093-0.182-15.528-6.867-15.105-7.697
						c0.319-0.626,14.693,5.258,14.84,4.97c0.341-0.668-12.146-5.972-12.058-6.144c0.137-0.269,16.131,4.494,16.287,4.186
						c0.263-0.514-9.939-4.342-9.647-4.916c0.007-0.012,9.37,1.065,9.583,0.646c0.007-0.012-9.746-4.865-9.705-4.945
						c0.117-0.231,7.352,2.274,7.446,2.087c0.006-0.012-3.912-1.745-3.812-1.942c0.181-0.355,9.424,1.78,9.547,1.538
						c0.005-0.011-1.852-0.932-1.847-0.941"/>
					<path fill="none" stroke="#3E3A39" stroke-linecap="round" stroke-linejoin="round" d="M853.146,91.47
						c0.001-0.004-1.66-0.833-1.655-0.843c0.115-0.226,6.45,0.284,6.457,0.27c0.113-0.224-5.127-2.507-5.084-2.591
						c0.038-0.075,8.35,0.373,8.444,0.188c0.149-0.293-6.561-2.99-6.418-3.27c0.151-0.297,14.795,4.871,14.938,4.591
						c0.334-0.654-18.895-8.783-18.553-9.453c0.416-0.816,19.725,6.807,20.145,5.981c0.316-0.62-26.313-13.001-26.148-13.323
						c0.435-0.853,29.336,13.197,29.8,12.288c0.037-0.073-4.252-1.93-4.156-2.117c0.138-0.27,6.759-0.738,6.843-0.904
						c0.03-0.059-1.216-0.618-1.215-0.619"/>
					<path fill="none" stroke="#3E3A39" stroke-linecap="round" stroke-linejoin="round" d="M786.124,20.634
						c0.009-0.018-2.581-1.274-2.564-1.307c0.017-0.031,5.483,0.546,5.507,0.5c0.013-0.025-3.152-1.46-3.094-1.576"/>
					<path fill="none" stroke="#3E3A39" stroke-linecap="round" stroke-linejoin="round" d="M811.405,77.608
						c0.223-0.438-21.244-9.928-20.881-10.64c0.213-0.419,18.165,8.018,18.308,7.738c0.189-0.371-14.579-7.22-14.495-7.385
						c0.38-0.746,15.909,5.354,16.269,4.648c0.302-0.592-18.219-8.483-17.896-9.118c0.367-0.72,15.813,6.564,15.894,6.407
						c0.044-0.086-14.477-6.781-14.236-7.253c0.156-0.306,9.337,1.8,9.348,1.779c0.106-0.21-7.03-3.096-6.834-3.482
						c0.09-0.176,8.664,1.964,8.811,1.678c0.095-0.185-10.791-5.1-10.63-5.416c0.096-0.188,8.62,1.22,8.8,0.868
						c0.051-0.101-8.744-3.87-8.508-4.334c0.155-0.304,11.988,1.995,12.087,1.803c0.203-0.4-11.043-5.003-10.791-5.498
						c0.166-0.325,8.1-0.111,8.266-0.437c0.166-0.326-9.505-4.448-9.345-4.762c0.17-0.333,11.075,4,11.175,3.805
						c0.051-0.099-14.009-7.038-13.968-7.118c0.073-0.145,11.917,3.454,11.926,3.438c0.282-0.554-7.34-3.712-7.328-3.734
						c0.172-0.338,10.994,2.496,11.231,2.031c0.194-0.382-11.355-5.201-11.119-5.665c0.005-0.009,8.152,0.383,8.242,0.206
						c0.038-0.075-11.077-5.276-10.929-5.568c0.132-0.258,14.428,3.213,14.545,2.983c0.219-0.43-18.802-9.194-18.646-9.5
						c0.217-0.426,12.927,5.561,13.119,5.183c0.185-0.362-12.419-5.914-12.252-6.243c0.315-0.619,16.798,7.377,17.091,6.801
						c0.273-0.536-17.277-8.601-17.195-8.762c0.129-0.254,11.791,4.72,12.013,4.286c0.195-0.384-8.723-4.268-8.651-4.408
						c0.141-0.275,8.371,1.831,8.42,1.734c0.282-0.553-13.221-5.928-12.894-6.57c0.322-0.633,16.166,5.906,16.49,5.269
						c0.349-0.685-16.772-8.193-16.63-8.474c0.245-0.482,15.276,3.89,15.416,3.615c0.256-0.504-12.018-5.77-11.875-6.05
						c0.075-0.148,10.952,1.733,11.108,1.426c0.084-0.166-4.972-2.344-4.895-2.494c0.084-0.166,8.932,0.813,9.016,0.648
						c0.088-0.174-7.236-3.615-7.207-3.672c0.219-0.43,9.388,2.19,9.435,2.098c0.014-0.026-3.94-1.952-3.917-1.996"/>
					<path fill="none" stroke="#3E3A39" stroke-linecap="round" stroke-linejoin="round" d="M809.905,91.314
						c0.074-0.146-6.96-3.269-6.848-3.489c0.196-0.385,10.395,1.32,10.502,1.109c0.393-0.769-17.402-8.038-17.067-8.696
						c0.51-1,23.741,8.918,23.832,8.74c0.003-0.007-24.896-11.65-24.477-12.472c0.549-1.077,31.783,12.975,32.258,12.043
						c0.646-1.269-33.056-16.593-32.954-16.792c0.518-1.015,32.689,12.901,32.796,12.692c0.06-0.116-7.391-3.291-7.198-3.667
						c0.127-0.25,14.845,3.771,15.111,3.247c0.045-0.087-3.896-1.854-3.844-1.958c0.09-0.177,5.063-0.48,5.072-0.497
						c0.115-0.227-3.733-1.849-3.712-1.891c0.196-0.386,11.046,2.513,11.232,2.146c0.021-0.043-4.201-1.952-4.125-2.102
						c0.073-0.145,4.598-1.325,4.702-1.53c0.067-0.132-4.237-1.929-4.144-2.111c0.162-0.318,8.684,2.229,8.821,1.96
						c0.019-0.037-3.991-1.955-3.959-2.018"/>
				</g>
				<g>
					<path fill="none" stroke="#3E3A39" stroke-linecap="round" stroke-linejoin="round" d="M510.913,8.529
						c0.01-0.018-3.243-1.599-3.221-1.642c0.179-0.352,9.847,2.092,9.858,2.069c0.171-0.336-2.44-1.084-2.376-1.21"/>
					<path fill="none" stroke="#3E3A39" stroke-linecap="round" stroke-linejoin="round" d="M543.725,74.007
						c0.126-0.247-17.34-8.261-17.107-8.717c0.047-0.091,15.157,5.583,15.225,5.452c0.06-0.117-14.339-6.63-14.065-7.167
						c0.027-0.053,12.165,2.826,12.369,2.425c0.234-0.46-16.648-8.305-16.577-8.446c0.081-0.16,17.728,7.548,18.08,6.855
						c0.164-0.322-15.223-7.514-15.125-7.707c0.212-0.415,10.842,4.208,11.098,3.706c0.138-0.27-10.946-5.223-10.803-5.504
						c0.142-0.278,11.774,1.918,11.959,1.556c0.104-0.205-12.14-5.623-11.912-6.069c0.042-0.082,10.223,1.479,10.393,1.146
						c0.137-0.269-14.455-7.048-14.327-7.3c0.154-0.304,17.164,8.028,17.588,7.196c0.056-0.109-11.313-4.978-10.994-5.602
						c0.023-0.047,9.113,3.092,9.296,2.733c0.152-0.298-15.238-7.622-15.181-7.735c0.193-0.379,17.043,5.229,17.073,5.17
						c0.057-0.112-18.245-8.502-17.924-9.132c0.285-0.561,18.276,7.126,18.396,6.893c0.127-0.25-18.386-9.138-18.293-9.32
						c0.131-0.256,14.124,3.778,14.176,3.677c0.027-0.054-13.601-6.693-13.505-6.881c0.227-0.445,14.355,5.623,14.467,5.404
						c0.056-0.108-13.893-6.983-13.854-7.059c0.265-0.521,17.57,5.952,17.714,5.669c0.295-0.579-12.597-6.164-12.494-6.366
						c0.107-0.211,8.546-0.199,8.663-0.43c0.029-0.056-12.179-5.665-11.96-6.094c0.288-0.565,14.655,4.495,14.847,4.119
						c0.131-0.258-17.738-8.434-17.494-8.913c0.09-0.176,12.827,3.551,12.953,3.304c0.027-0.054-13.213-6.091-12.953-6.6
						c0.132-0.259,12.721,3.017,12.812,2.839c0.405-0.794-19.139-8.45-18.611-9.483c0.163-0.32,19.703,8.531,20.038,7.873
						c0.278-0.544-17.402-8.571-17.282-8.806c0.068-0.135,21.659,7.554,21.965,6.954c0.19-0.374-11.44-5.763-11.414-5.815
						c0.142-0.278,13.937,4.474,14.246,3.867c0.064-0.127-11.055-5.34-10.937-5.572c0.052-0.101,9.856,3.374,9.966,3.16
						c0.132-0.259-9.246-4.566-9.188-4.681c0.036-0.07,12.094,3.898,12.146,3.794c0.052-0.101-8.588-4.276-8.547-4.355
						c0.144-0.282,9.706,3.526,9.783,3.375c0.014-0.028-2.148-1.05-2.131-1.085c0.111-0.217,4.985-0.688,5.083-0.878
						c0.03-0.06-1.448-0.695-1.431-0.729"/>
					<path fill="none" stroke="#3E3A39" stroke-linecap="round" stroke-linejoin="round" d="M523.954,91.548
						c0.012-0.024-2.789-1.371-2.77-1.41c0.054-0.104,4.85,0.969,4.886,0.899c0.034-0.068-1.256-0.603-1.24-0.632
						c0.182-0.355,7.878,0.797,8.05,0.461c0.117-0.231-9.524-4.541-9.397-4.788c0.205-0.403,9.075,3.043,9.12,2.955
						c0.021-0.041-7.467-3.515-7.35-3.744c0.086-0.168,5.205-0.316,5.211-0.328c0.07-0.138-2.642-1.026-2.512-1.28
						c0.069-0.136,6.812,0.94,6.925,0.718c0.078-0.153-8.713-4.109-8.58-4.371c0.108-0.213,9.692,1.823,9.896,1.426
						c0.055-0.108-9.674-4.299-9.419-4.799c0.229-0.45,17.353,4.843,17.497,4.56c0.296-0.581-16.445-7.475-16.079-8.193
						c0.392-0.769,18.561,5.778,18.953,5.009c0.316-0.622-20.193-9.534-19.889-10.133c0.372-0.73,23.491,10.618,23.709,10.19
						c0.104-0.205-26.518-13.303-26.434-13.469c0.169-0.332,26.075,11.116,26.096,11.077c0.042-0.084-1.756-0.891-1.754-0.894"/>
					<path fill="none" stroke="#3E3A39" stroke-linecap="round" stroke-linejoin="round" d="M531.319,145.69
						c0.048-0.095-5.209-2.474-5.136-2.617c0.102-0.201,5.247-1.429,5.303-1.539c0.231-0.454-8.825-4.008-8.627-4.396
						c0.266-0.521,12.795,3.233,12.843,3.14c0.001-0.003-11.479-5.319-11.266-5.739c0.244-0.48,14.794,3.668,15.006,3.252
						c0.247-0.484-12.394-6.219-12.354-6.295c0.101-0.198,6.801-0.502,6.821-0.542c0.046-0.09-5.18-2.272-5.031-2.563"/>
				</g>
			</g>
		</g>
	</g>
	<polygon opacity="0.5" fill="#FFFFFF" points="935.666,62.384 311.475,69.352 6.722,62.384 312.309,47.658 	"/>
</g>
</svg>
