<?xml version="1.0" encoding="utf-8"?>
<!-- Generator: Adobe Illustrator 16.0.0, SVG Export Plug-In . SVG Version: 6.00 Build 0)  -->
<!DOCTYPE svg PUBLIC "-//W3C//DTD SVG 1.1//EN" "http://www.w3.org/Graphics/SVG/1.1/DTD/svg11.dtd">
<svg version="1.1" id="图层_1" xmlns="http://www.w3.org/2000/svg" xmlns:xlink="http://www.w3.org/1999/xlink" x="0px" y="0px"
	 width="179.881px" height="860px" viewBox="0 0 179.881 860" enable-background="new 0 0 179.881 860" xml:space="preserve">
<g>
	<g>
		<g>
			<g>
				<path fill="none" stroke="#B5B5B6" stroke-linecap="round" stroke-linejoin="round" d="M133.441,13.016
					c0.021-0.04-6.531-3.213-6.484-3.305c0.053-0.104,9.353,3.732,9.555,3.335c0.09-0.178-7.196-3.359-7.072-3.604"/>
				<path fill="none" stroke="#B5B5B6" stroke-linecap="round" stroke-linejoin="round" d="M152.576,150.835
					c0.032-0.064-2.775-1.256-2.712-1.382c0.084-0.164,6.293-0.975,6.295-0.979c0.254-0.499-10.844-5.409-10.797-5.501
					c0.127-0.25,12.361,4.044,12.486,3.797c0.136-0.266-18.605-8.977-18.402-9.376c0.214-0.419,15.368,6.893,15.742,6.159
					c0.262-0.514-13.813-6.58-13.627-6.943c0.187-0.366,16.182,4.337,16.311,4.083c0.185-0.361-24.383-11.64-24.065-12.262
					c0.599-1.176,26.207,11.135,26.691,10.186c0.012-0.023-33.298-16.793-33.228-16.93c0.068-0.136,27.837,13.499,28.196,12.793
					c0.543-1.064-36.753-17.66-36.321-18.507c0.072-0.143,38.942,16.214,38.965,16.169c0.816-1.601-42.48-21.521-42.431-21.619
					c0.451-0.886,44.5,20.789,45.135,19.544c0.333-0.655-55.284-25.851-54.347-27.691c1.013-1.987,50.649,23.232,51.392,21.776
					c0.876-1.719-64.205-29.47-62.893-32.045c1.252-2.458,58.996,28.865,60.234,26.435c1.633-3.206-76.914-38.756-76.739-39.1
					c1.423-2.792,76.497,40.158,77.584,38.025c0.607-1.192-79.973-39.172-79.335-40.423c1.431-2.808,81.641,41.69,83.392,38.252
					c2.239-4.394-91.017-44.386-90.212-45.965c1.947-3.821,90.716,44.816,90.808,44.637c2.398-4.707-99.624-49.32-99.041-50.464
					c0.898-1.765,93.116,50.396,94.923,46.851c0.058-0.114-12.28-5.729-12.067-6.148c0.222-0.435,13.343,3.154,13.407,3.027
					c0.084-0.165-8.449-3.954-8.307-4.233c0.084-0.166,7.767,1.994,7.916,1.701c0.199-0.392-10.655-5.23-10.575-5.388
					c0.249-0.488,11.605,2.765,11.836,2.313c0.162-0.317-11.057-5.334-10.936-5.572c0.222-0.435,9.688,1.84,9.857,1.507
					c0.106-0.208-5.634-2.736-5.579-2.843c0.022-0.044,2.54-2.43,2.573-2.496c0.118-0.231-4.198-1.744-4.039-2.058
					c0.146-0.287,6.764-0.744,6.779-0.774c0.029-0.058-6.184-3.038-6.138-3.127c0.087-0.171,8.891-0.048,8.983-0.232
					c0.123-0.241-9.846-4.988-9.834-5.011c0.184-0.359,9.307,2.852,9.482,2.508c0.023-0.046-8.764-4.37-8.725-4.446
					c0.021-0.043,7.335,1.396,7.433,1.205c0.023-0.044-10.593-5.309-10.557-5.379c0.054-0.106,11.76,2.608,11.883,2.366
					c0.091-0.178-9.867-4.746-9.753-4.97c0.004-0.007,7.819,0.311,7.867,0.218c0.102-0.2-10.919-5.146-10.75-5.477
					c0.184-0.36,10.847,1.855,10.969,1.616c0.097-0.189-7.227-3.53-7.165-3.651s5.146-1.1,5.227-1.258
					c0.07-0.138-10.634-4.992-10.462-5.331c0.109-0.214,9.348,0.877,9.377,0.819c0.038-0.075-3.532-1.766-3.519-1.792
					c0.006-0.012,4.699-2.015,4.774-2.162c0.159-0.313-4.446-1.978-4.33-2.206c0.055-0.106,8-0.382,8.087-0.552
					c0.073-0.145-14.351-7.307-14.349-7.311c0.089-0.174,9.727,0.824,9.761,0.757c0.23-0.453-5.546-2.332-5.346-2.724
					c0.023-0.045,5.078-0.472,5.181-0.673c0.069-0.137-10.626-4.817-10.385-5.292c0.092-0.181,9.61,2.142,9.78,1.809
					c0.199-0.393-5.73-2.396-5.519-2.812c0.111-0.219,6.642,0.722,6.769,0.473c0.179-0.35-11.723-5.692-11.609-5.915
					c0.005-0.008,15.12,6.234,15.465,5.558c0.034-0.068-13.294-6.354-13.124-6.687c0.284-0.56,14.541,3.355,14.777,2.891
					c0.007-0.012-14.24-6.668-14.003-7.135c0.096-0.188,11.204,3.958,11.328,3.713c0.103-0.201-16.001-8.068-15.967-8.135
					c0.142-0.278,18.805,7.245,19.247,6.377c0.276-0.542-21.882-10.605-21.662-11.037c0.396-0.779,18.013,7.125,18.033,7.084
					c0.558-1.094-30.555-15.474-30.517-15.549c0.56-1.098,31.106,12.713,31.336,12.262c0.511-1.001-28.684-13.105-28.072-14.304
					c0.471-0.924,29.283,12.187,29.875,11.026c0.354-0.696-15.043-7.38-14.928-7.606c0.366-0.719,15.404,5.311,15.405,5.309
					c0.105-0.208-15.772-7.693-15.634-7.966c0.492-0.965,21.513,8.782,21.579,8.653c0.168-0.33-11.299-5.057-11.016-5.613
					c0.171-0.335,11.053,2.345,11.081,2.29c0.025-0.05-6.057-2.883-5.975-3.044c0.263-0.514,13.754,4.18,14.008,3.682
					c0.154-0.304-7.949-3.667-7.795-3.971c0.095-0.186,4.783,0.068,4.878-0.118c0.029-0.057-2.554-1.202-2.514-1.281"/>
				<path fill="none" stroke="#B5B5B6" stroke-linecap="round" stroke-linejoin="round" d="M11.207,15.396
					c0.044-0.087-7.467-3.789-7.46-3.801c0.296-0.582,13.111,5.275,13.158,5.184c0.021-0.04-12.253-5.934-12.128-6.18"/>
				<path fill="none" stroke="#B5B5B6" stroke-linecap="round" stroke-linejoin="round" d="M145.15,104.786
					c1.687-3.309-86.114-42.502-85.558-43.594c0.528-1.038,78.146,38.418,78.694,37.343c0.854-1.679-89.132-45.303-89.086-45.392
					c0.446-0.876,78.729,42.375,80.489,38.92c1.43-2.807-85.474-38.623-83.479-42.535c0.143-0.281,76.485,38.824,78.004,35.844
					c2.02-3.964-96.305-47.723-95.76-48.792c0.706-1.385,81.723,41.321,82.778,39.249c0.235-0.464-87.886-40.17-86.021-43.83
					c1.581-3.103,80.269,41.783,81.973,38.438c1.989-3.905-87.094-40.756-85.63-43.63c1.225-2.404,68.712,34.889,70.229,31.91
					c0.133-0.261-68.221-33.694-67.79-34.541c0.784-1.539,64.588,33.898,65.849,31.423c1.25-2.453-66.874-30.842-65.566-33.408
					c1.474-2.893,60.618,31.446,61.657,29.408C86.776,49.948,2.062,10.862,2.87,9.277c0.196-0.386,69.444,31.655,69.756,31.042
					c0.813-1.597-61.354-30.978-61.24-31.203c0.106-0.208,50.736,22.392,51.186,21.507c1.048-2.057-38.331-17.963-37.697-19.208
					c0.25-0.491,36.616,17.024,36.682,16.894c0.404-0.793-39.541-19.432-39.252-20c0.359-0.704,32.367,15.278,32.507,15.004
					c0.659-1.294-24.802-12.441-24.723-12.597c0.158-0.311,17.968,5.439,17.992,5.392c0.246-0.483-12.486-5.718-12.226-6.229
					c0.255-0.5,16.043,7.367,16.348,6.767c0.067-0.131-15.383-7.422-15.215-7.752c0.113-0.222,8.464,1.43,8.566,1.23
					c0.006-0.012-0.83-0.381-0.813-0.414"/>
				<path fill="none" stroke="#B5B5B6" stroke-linecap="round" stroke-linejoin="round" d="M43.264,142.721
					c0.323-0.635-19.458-9.549-19.31-9.839c0.182-0.358,12.261,4.509,12.382,4.271c0.214-0.419-12.731-6.13-12.587-6.414
					c0.04-0.079,14.34,5.529,14.371,5.468c0.239-0.471-9.316-4.304-9.137-4.656c0.208-0.41,10.753,2.355,10.799,2.267
					c0.129-0.253-9.901-4.606-9.724-4.955c0.027-0.053,3.963-1.797,4.023-1.915c0.005-0.008-4.647-2.363-4.646-2.367
					c0.176-0.346,10.331,4.209,10.551,3.775c0.25-0.491-15.493-7.548-15.353-7.823c0,0,9.715,1.634,9.725,1.615
					c0.207-0.406-9.051-4.22-8.893-4.531c0.191-0.376,12.417,1.7,12.454,1.627c0.061-0.119-9.153-4.285-9-4.585
					c0.147-0.289,8.809,0.199,8.956-0.088c0.122-0.24-9.93-4.608-9.747-4.967c0.041-0.079,6.471,0.611,6.542,0.471
					c0.119-0.233-5.649-2.755-5.599-2.853c0.153-0.3,9.506,0.176,9.532,0.125c0.123-0.241-8.813-4.299-8.735-4.451
					c0.06-0.118,4.713,0.685,4.804,0.506c0.005-0.011-4.567-1.863-4.379-2.231c0.074-0.145,3.544-1.705,3.575-1.765
					c0.186-0.366-9.17-4.403-9.061-4.617c0.025-0.05,8.342-0.567,8.354-0.59c0.086-0.17-4.368-1.778-4.187-2.133
					c0.167-0.327,8.935,3.376,9.102,3.049c0.164-0.322-13.75-6.753-13.647-6.954c0.164-0.322,13.331,4.775,13.549,4.348
					c0.157-0.31-8.661-4.285-8.609-4.387c0.133-0.261,6.138-1.246,6.264-1.493c0.063-0.123-10.439-4.906-10.272-5.234
					c0.195-0.382,11.394,2.572,11.575,2.215c0.123-0.241-10.271-5.206-10.26-5.228c0.089-0.175,8.65,1.955,8.683,1.89
					c0.11-0.217-9.185-4.339-9.047-4.61c0.26-0.51,11.824,2.779,12.053,2.329c0.092-0.18-8.97-4.022-8.749-4.458
					c0.072-0.142,5.566-0.497,5.587-0.54c0.116-0.228-11.642-5.555-11.489-5.854c0.004-0.008,12.419,2.387,12.507,2.213
					c0.164-0.321-11.903-5.604-11.717-5.97c0.111-0.217,10.46,2.601,10.678,2.174c0.033-0.064-8.075-4.01-8.033-4.093
					c0.065-0.127,7.683,1.907,7.712,1.849c0.057-0.111-11.406-5.685-11.355-5.786c0.175-0.343,14.029,5.935,14.259,5.483
					c0.095-0.186-7.914-4.016-7.907-4.029c0.064-0.126,3.123-1.835,3.137-1.863c0.049-0.097-5.317-2.27-5.139-2.618
					c0.066-0.13,5.294-1.869,5.402-2.079c0.115-0.226-6.91-3.52-6.91-3.521c0.034-0.067,7.161,0.422,7.243,0.262
					c0.226-0.443-5.752-2.471-5.566-2.836c0.052-0.103,6.224-0.231,6.34-0.459c0.097-0.19-10.917-5.244-10.788-5.497
					c0.138-0.271,10.157,0.92,10.218,0.801c0.054-0.105-5.956-2.87-5.889-3.001"/>
				<path fill="none" stroke="#B5B5B6" stroke-linecap="round" stroke-linejoin="round" d="M12.808,151.589
					c0.001-0.002-1.401-0.665-1.381-0.704c0.244-0.478,11.021,1.267,11.158,0.997c0.206-0.403-6.883-3.039-6.694-3.411
					c0.003-0.005,9.824,3.57,9.898,3.425c0.223-0.438-14.387-7.159-14.317-7.295c0.259-0.507,17.835,7.147,18.09,6.647
					c0.024-0.047-14.604-7.412-14.592-7.435c0.09-0.178,18.868,8.773,19.188,8.146c0.254-0.499-15.562-7.808-15.513-7.904
					c0.32-0.628,21.108,8.687,21.583,7.754c0.32-0.628-17.868-8.804-17.746-9.042c0.127-0.25,17.53,6.359,17.624,6.174
					c0.243-0.477-17.968-9.14-17.961-9.152c0.652-1.279,30.437,12.492,30.811,11.759c0.476-0.934-25.094-12.028-24.788-12.63
					c0.398-0.781,32.277,14.047,32.896,12.832c0.223-0.437-17.254-8.673-17.206-8.767c0.152-0.299,15.041,3.953,15.316,3.411
					c0.038-0.074-3.626-1.783-3.601-1.834"/>
			</g>
			<g>
				<path fill="none" stroke="#3E3A39" stroke-linecap="round" stroke-linejoin="round" d="M81.334,202.157
					c0.007-0.013-5.048-2.57-5.047-2.572c0.23-0.453,10.791,2.186,10.828,2.113c0.018-0.034-11.025-5.353-10.918-5.563"/>
				<path fill="none" stroke="#3E3A39" stroke-linecap="round" stroke-linejoin="round" d="M25.106,228.544
					c0.093-0.184-2.629-1.264-2.598-1.324c0.015-0.03,1.02-2.196,1.036-2.227c0.044-0.087-6.461-3.286-6.459-3.291
					c0.012-0.023,2.129-0.89,2.176-0.982c0.073-0.143-1.298-0.412-1.197-0.61c0.008-0.016,4.328-1.49,4.411-1.652
					c0.09-0.177-4.29-2.127-4.266-2.174c0.032-0.063-1.726-3.69-1.678-3.784c0.012-0.023-2.425-1.006-2.332-1.188
					c0.116-0.228,6.535,0.312,6.66,0.065c0.12-0.234-10.732-5.251-10.644-5.423c0.087-0.171,5.286-0.912,5.395-1.125
					c0.01-0.02-2.413-1.146-2.379-1.212c0.07-0.137,6.312,1.366,6.424,1.145c0.118-0.23-5.019-2.254-4.896-2.495
					c0.152-0.299,6.791,1.719,6.899,1.507c0.08-0.157-12.685-6.272-12.607-6.424c0.034-0.067,13.058,2.288,13.112,2.181
					c0.138-0.271-9.856-4.974-9.836-5.012c0.029-0.058,14.964,3.36,15.089,3.115c0.364-0.714-10.287-4.698-10.067-5.13
					c0.106-0.208,15.89,6.369,15.918,6.315c0.193-0.38-20.961-10.339-20.823-10.61"/>
				<path fill="none" stroke="#3E3A39" stroke-linecap="round" stroke-linejoin="round" d="M55.223,230.081
					c0.118-0.231-10.348-5.139-10.294-5.245c0.062-0.12,4.361,0.286,4.402,0.206c0.076-0.149-4.604-2.22-4.553-2.32
					c0.019-0.036,6.64,1.563,6.654,1.535c0.082-0.161-1.499-0.611-1.438-0.732c0.068-0.134,3.256-1.54,3.271-1.569
					c0.042-0.082-2.377-1.067-2.319-1.182c0.025-0.049-0.5-4.078-0.443-4.189c0.002-0.002-3.367-1.715-3.367-1.716
					c0.099-0.194,5.979,1.75,6.103,1.507c0.085-0.167-8.666-4.297-8.618-4.391c0,0,2.541-2.036,2.545-2.043
					c0.082-0.161-2.974-1.359-2.91-1.483c0.089-0.175,5.528-1.857,5.546-1.891c0.044-0.086-6.485-3.029-6.374-3.248
					c0.09-0.177,4.982-1.893,5.072-2.068c0.338-0.663-26.698-12.355-26.193-13.346c0.145-0.284,21.732,8.842,21.987,8.341
					c0.261-0.512-16.623-8.201-16.514-8.414c0.293-0.575,17.681,4.4,17.732,4.301c0.102-0.198-7.23-3.526-7.167-3.652"/>
				<path fill="none" stroke="#3E3A39" stroke-linecap="round" stroke-linejoin="round" d="M20.664,258.886
					c0,0-0.932-0.442-0.919-0.468c0.09-0.178,1.846-3.621,1.897-3.722c0.078-0.152-1.587-0.632-1.516-0.772
					c0,0,1.529-0.809,1.542-0.833c0.085-0.167-8.669-4.352-8.642-4.404c0.106-0.208,7.707,1.617,7.812,1.41
					c0.01-0.021-9.169-4.659-9.165-4.669c0.051-0.1,10.912,4.376,11.093,4.021c0.128-0.252-10.243-5.158-10.218-5.207
					c0.167-0.327,11.378,3.166,11.625,2.681c0.192-0.377-12.484-6.182-12.412-6.324c0.063-0.123,8.938,1.862,8.983,1.771
					c0.156-0.305-11.897-6.052-11.894-6.06c0.431-0.846,20.537,7.135,20.784,6.65c0.283-0.554-14.976-7.18-14.793-7.538
					c0.243-0.477,20.157,7.275,20.535,6.534c0.278-0.545-20.872-10.485-20.812-10.604c0.272-0.535,26.132,9.944,26.625,8.976
					c0.277-0.545-22.519-10.994-22.325-11.375c0.223-0.437,26.379,13.388,26.976,12.218c0.058-0.112-19.894-10.013-19.844-10.111
					c0.574-1.126,27.848,13.123,28.26,12.314c0.356-0.701-24.762-12.135-24.567-12.518c0.119-0.234,24.301,10.885,24.605,10.29
					c0.472-0.927-22.456-10.153-21.935-11.176c0.578-1.134,26.243,10.936,26.29,10.844c0.116-0.227-19.21-9.784-19.208-9.787
					c0.574-1.127,25.278,12.488,25.772,11.519c0.146-0.288-23.166-11.3-22.963-11.7c0.354-0.695,32.518,13.835,33.185,12.525
					c0.1-0.196-26.11-12.081-25.615-13.052c0.042-0.083,27.606,11.192,27.748,10.915c0.413-0.812-18.879-9.324-18.76-9.558
					c0.001-0.001,23.112,10.115,23.471,9.411c0.249-0.488-21.666-9.936-21.22-10.812c0.58-1.138,25.486,10.121,25.675,9.75
					c0.367-0.721-21.461-10.121-21.132-10.767c0.262-0.514,22.282,8.378,22.621,7.713c0.261-0.512-16.225-7.888-16.071-8.188
					c0.224-0.438,20.84,7.47,21.277,6.611c0.202-0.396-16.781-8.159-16.623-8.47c0.094-0.185,18.579,6.931,18.694,6.705
					c0.216-0.424-14.479-6.858-14.27-7.271c0.13-0.255,16.667,5.821,17.035,5.098c0.039-0.075-15.519-7.594-15.392-7.843
					c0.3-0.589,16.123,5.853,16.396,5.319c0.208-0.409-13.592-6.438-13.395-6.825c0.279-0.549,12.734,3.148,12.755,3.108
					c0.143-0.28-10.519-5.111-10.418-5.309c0.061-0.118,7.088-0.533,7.221-0.793c0.074-0.146-2.728-1.352-2.712-1.382
					c0.088-0.172,4.729-1.322,4.837-1.531c0.067-0.133-9.899-4.744-9.778-4.982c0.027-0.053,10.172,3.513,10.363,3.138
					c0.099-0.194-3.831-1.918-3.817-1.945c0.064-0.126,0.744-4.171,0.813-4.306c0.015-0.03-7.594-3.691-7.521-3.833
					c0.05-0.098,2.709-0.589,2.761-0.691c0.051-0.099-1.355-0.632-1.332-0.679c0.001-0.001,2.386-3.021,2.407-3.063
					c0.301-0.591-12.501-6.319-12.481-6.359c0.194-0.38,9.118,3.083,9.271,2.783c0,0-9.088-3.977-8.823-4.496
					c0.009-0.018,7.579,2.606,7.726,2.318c0.002-0.002-6.834-3.326-6.771-3.45"/>
				<path fill="none" stroke="#3E3A39" stroke-linecap="round" stroke-linejoin="round" d="M85.645,348.748
					c0.061-0.119-0.919-0.418-0.899-0.458c0.04-0.077,6.398,0.607,6.439,0.527c0.103-0.202-12.456-6.333-12.45-6.344
					c0.061-0.12,11.433,4.332,11.674,3.857c0.222-0.434-10.515-4.596-10.207-5.201c0.032-0.063,17.908,6.057,18.245,5.396
					c0.298-0.585-14.206-7.04-14.126-7.197c0.085-0.167,10.546,2.756,10.672,2.508c0.035-0.068-11.161-5.009-10.887-5.547
					c0.315-0.619,16.882,6.114,17.222,5.447c0.319-0.627-18.912-9.055-18.677-9.517c0.183-0.359,11.138,2.362,11.364,1.917
					c0.02-0.038-7.38-3.603-7.316-3.728c0.096-0.187,8.424,2.543,8.577,2.242c0.161-0.315-7.376-3.344-7.209-3.673
					c0.14-0.274,6.258,1.424,6.356,1.23c0.079-0.156-12.692-6.276-12.615-6.427c0.015-0.03,5.635-1.569,5.659-1.617
					c0.082-0.162-5.608-2.828-5.597-2.852c0.008-0.015,1.465-3.746,1.498-3.811c0.763-1.497-26.659-12.441-26.197-13.348
					c0.185-0.363,27.26,12.213,27.308,12.119c0.298-0.584-30.081-14.804-29.869-15.219c0.315-0.621,28.536,13.283,28.659,13.043
					c0.568-1.116-20.705-10.381-20.637-10.515c0.252-0.495,28.016,10.595,28.054,10.52c0.389-0.762-22.096-10.245-21.686-11.05
					c0.5-0.981,30.922,15.673,31.521,14.497c0.157-0.309-30.684-14.655-30.288-15.432c0.424-0.831,29.947,12.108,30.329,11.359
					c0.149-0.293-21.92-10.2-21.527-10.969c0.302-0.592,16.359,6.059,16.562,5.662c0.319-0.627-14.563-7.142-14.45-7.363
					c0.111-0.217,10.521,0.986,10.7,0.635c0.116-0.228-9.256-4.614-9.215-4.695c0.083-0.163,3.823,0.214,3.825,0.209
					c0.023-0.046-2.605-1.151-2.534-1.291c0.03-0.059,0.895-3.351,0.896-3.354c0.012-0.022-2.12-0.952-2.068-1.054
					c0.039-0.076,2.03-1.289,2.057-1.341c0.011-0.021-1.118-0.511-1.095-0.558"/>
				<path fill="none" stroke="#3E3A39" stroke-linecap="round" stroke-linejoin="round" d="M22.268,298.39
					c0.125-0.244-10.6-5.262-10.544-5.372c0.046-0.09,3.218-0.323,3.249-0.383c0.06-0.119-3.696-1.783-3.656-1.863
					c0.014-0.028,5.359,0.904,5.371,0.882c0.054-0.105-0.072,0.062-0.032-0.016"/>
				<path fill="none" stroke="#3E3A39" stroke-linecap="round" stroke-linejoin="round" d="M16.453,333.766
					c0.001-0.002-1.288-0.611-1.27-0.647c0.125-0.244,5.334-1.796,5.405-1.936c0.1-0.195-2.507-1.05-2.416-1.23
					c0-0.001,2.858-0.111,2.878-0.151c0.099-0.193-9.211-4.618-9.181-4.678c0.116-0.228,8.361,1.973,8.476,1.749
					c0.01-0.019-8.63-4.386-8.625-4.395c0.048-0.094,10.211,3.989,10.38,3.658c0.095-0.186-8.8-4.438-8.782-4.474
					c0.126-0.247,8.712,1.656,8.899,1.291c0.096-0.188-8.444-4.213-8.408-4.284c0.023-0.045,3.106-1.182,3.123-1.214
					c0.061-0.119-5.275-2.685-5.273-2.687c0.21-0.414,10.437,1.676,10.558,1.439c0.102-0.199-5.501-2.642-5.436-2.77
					c0.096-0.189,8.386,0.714,8.536,0.42c0.14-0.275-11.878-5.978-11.848-6.037c0.165-0.323,16.191,4.394,16.489,3.811
					c0.217-0.427-17.829-8.708-17.677-9.007c0.181-0.356,21.621,10.693,22.107,9.739c0.05-0.099-17.045-8.578-17.002-8.663
					c0.508-0.998,24.757,11.432,25.123,10.715c0.371-0.728-25.664-12.576-25.461-12.973c0.122-0.239,24.82,11.167,25.13,10.559
					c0.573-1.126-27.649-12.523-27.016-13.765c0.685-1.344,30.929,13.344,30.985,13.236c0.163-0.32-29.081-14.812-29.078-14.816
					c0.795-1.561,34.787,17.803,35.472,16.46c0.157-0.31-25.004-12.198-24.785-12.628c0.379-0.745,34.715,15.072,35.43,13.669
					c0.096-0.187-24.938-11.538-24.466-12.466c0.043-0.083,28.091,11.446,28.235,11.163c0.46-0.903-21.409-10.578-21.275-10.84
					c0,0,27.964,12.781,28.401,11.923c0.314-0.618-27.103-12.412-26.537-13.521"/>
				<path fill="none" stroke="#3E3A39" stroke-linecap="round" stroke-linejoin="round" d="M91.243,451.044
					c0.07-0.139-8.248-4.123-8.216-4.187c0.064-0.128,4.644,0.437,4.688,0.351c0.171-0.335-10.183-4.903-10.067-5.129
					c0.037-0.074,13.431,5.06,13.459,5.002c0.215-0.421-8.088-3.724-7.927-4.039c0.226-0.443,11.589,2.791,11.639,2.694
					c0.125-0.245-9.612-4.469-9.439-4.81c0.034-0.066,5.557-0.941,5.634-1.093c0.005-0.009-4.875-2.479-4.873-2.482
					c0.19-0.374,11.156,4.676,11.396,4.204c0.257-0.505-15.794-7.689-15.649-7.974c0,0,11.171,2.381,11.183,2.358
					c0.216-0.424-9.482-4.423-9.316-4.747c0.218-0.428,14.029,2.535,14.071,2.452c0.063-0.123-9.575-4.482-9.415-4.797
					c0.167-0.326,9.946,0.825,10.112,0.5c0.126-0.248-10.275-4.768-10.086-5.139c0.044-0.087,7.071,0.934,7.149,0.78
					c0.121-0.238-5.861-2.86-5.811-2.96c0.152-0.301,9.513,0.179,9.539,0.127c0.12-0.234-8.587-4.189-8.511-4.337
					c0.052-0.103,4.104,0.346,4.183,0.191c0.006-0.011-4.078-1.64-3.9-1.987c0.061-0.119,1.978-2.518,2.002-2.566
					c0.166-0.324-8.17-3.924-8.073-4.113c0.016-0.032,4.599-2.485,4.606-2.5c0.076-0.149-3.29-1.282-3.131-1.595
					c0.116-0.229,6.364,1.941,6.48,1.713c0.163-0.32-13.689-6.724-13.588-6.924c0.122-0.24,10.111,2.998,10.273,2.68
					c0.626-1.229-34.646-17.146-34.441-17.549c0.427-0.838,19.368,6.654,19.771,5.864c0.056-0.109-9.485-4.465-9.337-4.757"/>
				<path fill="none" stroke="#3E3A39" stroke-linecap="round" stroke-linejoin="round" d="M22.614,449.499
					c0.002-0.004-0.085,0.022-0.058-0.03c0.091-0.179,2.304-3.388,2.355-3.488c0.137-0.269-4.039-1.747-3.913-1.994
					c0-0.002,3.31,0.126,3.334,0.08c0.133-0.262-10.681-5.339-10.639-5.421c0.12-0.234,8.596,2.102,8.714,1.87
					c0.014-0.026-10.169-5.165-10.163-5.179c0.052-0.102,11.048,4.451,11.231,4.092c0.134-0.263-10.468-5.27-10.442-5.32
					c0.138-0.271,9.533,2.12,9.737,1.719c0.143-0.279-10.405-5.168-10.351-5.274c0.031-0.061,4.448-0.483,4.47-0.528
					c0.09-0.177-7.336-3.732-7.334-3.737c0.228-0.447,11.248,2.115,11.379,1.858c0.129-0.254-6.983-3.351-6.899-3.516
					c0.073-0.145,6.369-0.402,6.483-0.626c0.112-0.22-10.059-5.066-10.035-5.113c0.076-0.149,7.669-0.343,7.807-0.613
					c0.103-0.201-8.732-4.271-8.661-4.412c0.085-0.167,10.429,4.352,10.657,3.904c0.021-0.041-5.383-2.698-5.365-2.734
					c0.196-0.385,9.939,3.327,10.08,3.051c0.134-0.262-10.06-4.945-9.986-5.089c0.027-0.054,6.078,1.025,6.148,0.888
					c0.185-0.364-7.749-3.443-7.544-3.845c0.157-0.309,7.616,1.361,7.628,1.336c0.047-0.093-4.929-2.511-4.928-2.512
					c0.19-0.374,8.748,3.25,8.912,2.928c0.062-0.121-8.936-4.341-8.85-4.509c0.134-0.263,12.894,2.807,13.145,2.313
					c0.043-0.085-11.31-5.229-11.094-5.653c0.015-0.028,10.248,2.123,10.298,2.024c0.225-0.441-8.741-4.293-8.676-4.421
					c0,0,11.607,3.797,11.781,3.455c0.157-0.308-14.099-6.489-13.817-7.041c0.377-0.741,16.95,5.609,17.072,5.368
					c0.282-0.555-17.376-8.228-17.123-8.725c0.21-0.411,18.054,6.058,18.325,5.524c0.255-0.501-15.886-7.725-15.736-8.019
					c0.23-0.451,21.472,7.827,21.924,6.941c0.252-0.496-19.894-9.647-19.696-10.035c0.119-0.232,23.1,9.308,23.245,9.023
					c0.317-0.622-19.649-9.25-19.341-9.854c0.195-0.383,24.486,10.26,25.038,9.176c0.068-0.134-23.139-11.229-22.912-11.675
					c0.515-1.01,26.971,11.86,27.437,10.945c0.446-0.874-23.443-10.902-23.021-11.73c0.638-1.251,27.844,10.911,27.89,10.82
					c0.378-0.741-23.032-11.076-22.766-11.601c0.268-0.525,29.79,12.168,30.382,11.007c0.276-0.542-20.04-10.064-19.98-10.181"/>
				<path fill="none" stroke="#3E3A39" stroke-linecap="round" stroke-linejoin="round" d="M142.405,515.735
					c0.061-0.12-0.937-0.427-0.916-0.467c0.041-0.081,6.735,0.784,6.778,0.701c0.104-0.205-12.534-6.373-12.528-6.384
					c0.063-0.123,11.582,4.417,11.828,3.935c0.209-0.411-9.789-4.266-9.497-4.839c0.03-0.059,17,5.55,17.318,4.925
					c0.297-0.581-14.135-7.005-14.055-7.162c0.078-0.152,9.795,2.351,9.912,2.121c0.034-0.067-11.284-5.065-11.007-5.608
					c0.282-0.555,15.247,5.195,15.552,4.597c0.236-0.465-15.528-7.481-15.354-7.823c0.127-0.249,7.591,2.208,7.748,1.9
					c0.006-0.012-0.059,0.019-0.039-0.02"/>
				<path fill="none" stroke="#3E3A39" stroke-linecap="round" stroke-linejoin="round" d="M22.627,498.748
					c0.138-0.271-11.214-5.559-11.151-5.682c0.057-0.112,4.067,0.129,4.105,0.054c0.077-0.15-4.671-2.252-4.619-2.354
					c0.017-0.034,6.4,1.439,6.414,1.413c0.083-0.162-1.512-0.618-1.45-0.739c0.057-0.11,2.348-1.805,2.36-1.829
					c0.018-0.034-0.26-0.073-0.236-0.12"/>
				<path fill="none" stroke="#3E3A39" stroke-linecap="round" stroke-linejoin="round" d="M16.846,529.148
					c0.001-0.003-1.379-0.655-1.36-0.693c0.109-0.214,4.313-2.339,4.375-2.46c0.072-0.143-1.374-0.534-1.307-0.666
					c0-0.001,1.893-0.619,1.907-0.646c0.073-0.145-8.179-4.111-8.157-4.156c0.105-0.206,7.599,1.557,7.703,1.354
					c0.007-0.015-7.815-3.972-7.811-3.979c0.045-0.089,9.721,3.719,9.881,3.404c0.082-0.161-8.273-4.177-8.258-4.208
					c0.132-0.26,9.156,1.908,9.353,1.522c0.105-0.207-8.851-4.41-8.811-4.489c0.035-0.068,5.032-0.179,5.057-0.229
					c0.089-0.176-7.296-3.712-7.294-3.717c0.333-0.652,16.062,4.716,16.252,4.341c0.214-0.42-11.41-5.473-11.272-5.743
					c0.203-0.397,16.961,5.489,17.275,4.872c0.279-0.546-20.899-10.499-20.838-10.617c0.271-0.531,25.917,9.825,26.408,8.864
					c0.348-0.683-28.1-13.715-27.856-14.193c0.268-0.524,31.628,16.362,32.346,14.955c0.076-0.15-27.458-13.826-27.392-13.957
					c0.725-1.423,34.998,17.035,35.519,16.013c0.533-1.046-36.332-17.792-36.041-18.363c0.175-0.344,35.359,16.872,35.805,15.997
					c0.511-1.004-24.455-11.066-23.891-12.174c0.616-1.207,27.9,11.788,27.951,11.69c0.12-0.237-20.294-10.336-20.292-10.34
					c0.596-1.17,26.223,13.016,26.735,12.01c0.152-0.298-24.014-11.714-23.803-12.128c0.373-0.733,34.182,14.771,34.885,13.391
					c0.1-0.195-26.142-12.095-25.646-13.067c0.045-0.089,29.613,12.242,29.766,11.943c0.494-0.971-23.267-11.501-23.124-11.782
					c0,0,29.715,13.742,30.18,12.829c0.339-0.664-29.061-13.304-28.452-14.497c0.848-1.665,36.771,16.086,37.047,15.545
					c0.605-1.188-32.94-15.44-32.396-16.507c0.456-0.896,37.953,16.987,38.544,15.826c0.527-1.034-31.284-15.175-30.975-15.782
					c0.331-0.648,30.299,12.812,30.947,11.538c0.337-0.661-25.07-12.121-24.807-12.639c0.104-0.205,20.486,7.934,20.614,7.683
					c0.25-0.49-16.224-7.665-15.98-8.143c0.103-0.202,13.382,3.958,13.673,3.386c0.029-0.058-13.292-6.532-13.194-6.724
					c0.208-0.408,11.403,3.241,11.592,2.872c0.127-0.25-10.216-4.907-10.096-5.144c0.157-0.309,7.364,0.39,7.376,0.367
					c0.065-0.128-6.376-3.136-6.33-3.226c0.028-0.056,3.344-0.004,3.406-0.127c0.014-0.027-1.222-0.614-1.219-0.62"/>
				<path fill="none" stroke="#3E3A39" stroke-linecap="round" stroke-linejoin="round" d="M79.08,618.729
					c0.026-0.051-1.335-0.66-1.326-0.677c0.029-0.057,4.792-0.236,4.822-0.296c0.034-0.068-5.502-2.799-5.5-2.803
					c0.029-0.057,5.614,1.051,5.728,0.827c0.078-0.153-1.625-0.561-1.517-0.772c0.021-0.043,12.502,3.037,12.732,2.587
					c0.155-0.305-7.412-3.673-7.37-3.755c0.054-0.104,6.776,0.719,6.855,0.563c0.026-0.051-7.943-3.535-7.736-3.941
					c0.237-0.467,12.911,3.882,13.167,3.38c0.205-0.404-14.261-6.892-14.109-7.189c0.148-0.292,9.137,1.238,9.32,0.876
					c0.013-0.024-3.629-1.748-3.588-1.828c0.08-0.156,7.124,1.818,7.252,1.566c0.114-0.225-4.853-2.178-4.732-2.412
					c0.128-0.252,5.792,1.169,5.883,0.99c0.06-0.117-10.802-5.361-10.745-5.475c0.021-0.04,7.874-0.408,7.906-0.472
					c0.062-0.122-4.081-2.058-4.072-2.075c0.011-0.02,4.864-1.988,4.908-2.073c0.109-0.215-4.48-2.119-4.415-2.249
					c0.033-0.064,5.193,0.871,5.201,0.854c0.051-0.1-8.398-4.19-8.362-4.261c0.074-0.146,7.106,2.133,7.135,2.076
					c0.101-0.197-4.528-2.277-4.516-2.301c0.03-0.061,0.335-3.594,0.339-3.603c0.091-0.179-1.922-0.742-1.826-0.931
					c0.119-0.234,7.767,2.747,7.909,2.466c0.173-0.339-33.306-15.895-32.87-16.748c0.393-0.771,27.896,10.995,28.251,10.3
					c0.149-0.292-21.902-10.192-21.511-10.96c0.301-0.591,16.312,6.033,16.514,5.637c0.289-0.568-13.138-6.441-13.036-6.642
					c0.116-0.229,10.39,4.178,10.576,3.811c0.08-0.157-6.951-3.472-6.923-3.527"/>
				<path fill="none" stroke="#3E3A39" stroke-linecap="round" stroke-linejoin="round" d="M24.967,610.044
					c0.172-0.337-12.745-6.299-12.667-6.453c0.064-0.126,4.561,0.392,4.604,0.307c0.094-0.186-5.727-2.759-5.663-2.885
					c0.019-0.037,6.99,1.743,7.005,1.715c0.101-0.199-2.441-1.058-2.366-1.206c0.076-0.148,3.781-1.269,3.797-1.301
					c0.056-0.108-3.536-1.613-3.46-1.763c0.022-0.043,0.972-3.35,1.021-3.444c0.002-0.004-4.874-2.481-4.873-2.482
					c0.13-0.256,7.768,2.762,7.932,2.439c0.123-0.24-10.204-5.029-10.135-5.164c0,0,4.966-0.797,4.971-0.807
					c0.111-0.218-4.389-2.026-4.304-2.192c0.137-0.269,8.932-0.102,8.958-0.154c0.038-0.073-5.52-2.574-5.424-2.763
					c0.116-0.229,6.877-0.862,6.993-1.089c0.092-0.181-7.549-3.509-7.413-3.777c0.034-0.066,5.477,0.077,5.537-0.041
					c0.101-0.197-4.222-2.048-4.18-2.13c0.174-0.341,10.768,0.827,10.797,0.769c0.124-0.243-8.895-4.34-8.817-4.492
					c0.079-0.154,6.061,1.44,6.179,1.207c0.006-0.013-5.314-2.207-5.112-2.604c0.134-0.264,7.173,0.205,7.228,0.097
					c0.211-0.414-10.36-4.974-10.237-5.216c0.043-0.085,14.083,2.38,14.104,2.34c0.067-0.132-2.343-0.849-2.203-1.123
					c0.158-0.31,8.475,3.119,8.632,2.81c0.111-0.219-10.924-5.394-10.854-5.53c0.158-0.31,12.834,4.502,13.044,4.091
					c0.081-0.159-4.391-2.171-4.364-2.224c0.078-0.153,3.44-1.266,3.513-1.41c0.01-0.019-2.928-1.43-2.902-1.479"/>
				<path fill="none" stroke="#3E3A39" stroke-linecap="round" stroke-linejoin="round" d="M29.453,621.749
					c0.004-0.009-3.506-1.601-3.431-1.748c0.352-0.689,15.616,3.759,15.814,3.369c0.544-1.068-20.982-9.448-20.48-10.436
					c0.006-0.013,22.807,10.441,22.985,10.093c0.62-1.217-30.805-15.22-30.613-15.598c0.477-0.936,32.147,14.97,32.617,14.049
					c0.07-0.139-34.277-17.378-34.242-17.447c0.18-0.354,36.952,18.77,37.589,17.521c0.406-0.797-21.998-11.015-21.919-11.169
					c0.368-0.722,24.096,10.385,24.642,9.313c0.351-0.688-19.114-9.411-18.981-9.672c0.111-0.218,15.381,5.233,15.463,5.072
					c0.191-0.377-14.432-7.341-14.427-7.351c0.438-0.859,20.851,7.306,21.102,6.813c0.239-0.47-12.711-6.096-12.557-6.398
					c0.162-0.318,13.789,3.721,14.042,3.226c0.185-0.363-14.799-7.442-14.759-7.521c0.136-0.268,13.554,2.924,13.8,2.44
					c0.15-0.295-12.521-6.119-12.417-6.326c0.119-0.232,14.327,6.56,14.645,5.937c0.029-0.059-8.766-4.404-8.74-4.454
					c0.271-0.529,13.459,5.251,13.652,4.871c0.178-0.35-12.984-6.376-12.887-6.566c0.042-0.082,8.987,2.597,9.094,2.387
					c0.23-0.452-10.057-4.495-9.803-4.994c0.205-0.403,9.783,2.475,9.801,2.441c0.055-0.108-6.596-3.358-6.595-3.36
					c0.224-0.439,10.204,4.064,10.397,3.686c0.068-0.136-10.162-4.941-10.066-5.129c0.138-0.271,13.336,3.055,13.597,2.544
					c0.044-0.086-11.394-5.269-11.176-5.694c0.014-0.027,9.513,1.737,9.559,1.646c0.211-0.415-8.009-3.93-7.948-4.05
					c0,0,10.282,3.069,10.436,2.77c0.143-0.279-12.928-5.956-12.673-6.457c0.328-0.645,14.835,4.49,14.941,4.281
					c0.247-0.484-15.668-7.437-15.447-7.871c0.177-0.346,15.31,4.552,15.538,4.104c0.217-0.427-13.767-6.699-13.639-6.949
					c0.194-0.382,18.323,6.05,18.705,5.301c0.217-0.426-17.693-8.596-17.524-8.929c0.104-0.205,20.451,7.915,20.579,7.665
					c0.282-0.554-17.848-8.417-17.574-8.954c0.187-0.365,23.396,9.642,23.924,8.607c0.068-0.135-23.187-11.251-22.959-11.697"/>
				<path fill="none" stroke="#B5B5B6" stroke-linecap="round" stroke-linejoin="round" d="M76.481,720.133
					c0.022-0.044-1.17-0.579-1.163-0.593c0.028-0.056,4.602-0.337,4.631-0.395c0.047-0.092-6.728-3.422-6.725-3.427
					c0.034-0.068,6.72,1.674,6.857,1.403c0.097-0.189-2.773-1.081-2.639-1.345c0.023-0.046,13.38,3.527,13.627,3.043
					c0.169-0.333-8.099-4.013-8.053-4.103c0.06-0.116,7.518,1.119,7.606,0.946c0.027-0.054-8.403-3.746-8.187-4.172
					c0.32-0.629,17.142,6.261,17.487,5.582c0.305-0.599-18.317-8.777-18.093-9.219c0.222-0.434,13.316,3.589,13.591,3.052
					c0.02-0.039-7.527-3.676-7.463-3.803c0.127-0.249,11.061,4.013,11.266,3.611c0.185-0.363-8.728-3.968-8.534-4.349
					c0.223-0.436,9.7,3.322,9.856,3.015c0.101-0.196-14.569-7.186-14.473-7.374c0.031-0.061,11.91,1.69,11.96,1.594
					c0.108-0.212-7.583-3.825-7.567-3.855c0.014-0.027,7.199-0.759,7.258-0.876c0.19-0.373-3.154-1.323-3.039-1.549
					c0.034-0.066,5.402,0.979,5.411,0.962c0.085-0.168-11.44-5.679-11.379-5.798c0.077-0.152,7.392,2.281,7.422,2.222
					c0.166-0.326-2.601-1.274-2.58-1.314c0.028-0.057,2.045-2.722,2.05-2.73c0.121-0.237-3.977-1.71-3.849-1.961
					c0.156-0.308,10.063,4.029,10.252,3.66c0.055-0.107-13.258-6.416-13.12-6.686c0.134-0.263,10.082,1.342,10.203,1.104
					c0.242-0.475-35.552-16.547-34.917-17.791c0.605-1.189,31.913,14.486,32.318,13.69c0.675-1.324-31.402-15.414-31.165-15.88
					c0.321-0.629,28.8,11.133,29.315,10.12c0.37-0.726-25.36-12.597-25.229-12.854c0.465-0.912,19.75,8.354,19.764,8.329
					c0.077-0.152-15.98-7.55-15.741-8.02c0.099-0.193,11,2.973,11.005,2.964c0.018-0.034-4.003-1.844-3.924-1.999"/>
				<path fill="none" stroke="#B5B5B6" stroke-linecap="round" stroke-linejoin="round" d="M24.399,704.38
					c0.224-0.439-15.036-7.408-14.934-7.608c0.099-0.195,6.897,1.64,6.964,1.51c0.126-0.249-7.605-3.663-7.52-3.831
					c0.025-0.049,9.07,2.813,9.09,2.776c0.138-0.271-4.262-1.917-4.158-2.119c0.113-0.222,5.959-0.138,5.984-0.187
					c0.074-0.146-5.204-2.396-5.101-2.599c0.023-0.047-0.025-3.845,0.028-3.949c0.003-0.006-0.797-0.403-0.796-0.405
					c0.115-0.225,6.874,2.256,7.018,1.974c0.162-0.319-11.872-5.824-11.78-6.003c0,0,7.101,0.296,7.107,0.282
					c0.15-0.295-6.28-2.916-6.166-3.142c0.177-0.348,11.522,1.238,11.556,1.171c0.052-0.102-7.782-3.64-7.65-3.898
					c0.166-0.325,9.903,0.802,10.068,0.478c0.125-0.246-10.184-4.725-9.996-5.093c0.054-0.105,8.495,1.7,8.589,1.515
					c0.136-0.268-6.993-3.423-6.936-3.534c0.235-0.461,14.359,2.684,14.4,2.604c0.169-0.331-12.25-5.979-12.144-6.188
					c0.127-0.249,9.608,3.434,9.801,3.054c0.009-0.017-8.993-3.894-8.714-4.44c0.208-0.408,10.932,2.195,11.017,2.027
					c0.254-0.498-12.427-5.965-12.278-6.256c0.049-0.098,16.085,3.408,16.11,3.361c0.086-0.17-4.352-1.771-4.171-2.125
					c0.195-0.384,10.382,4.185,10.578,3.801c0.146-0.287-12.819-6.305-12.727-6.484c0.18-0.353,14.538,5.441,14.776,4.974
					c0.114-0.225-6.232-3.084-6.195-3.157c0.097-0.189,4.327-1.335,4.418-1.514c0.01-0.02-2.953-1.441-2.927-1.492"/>
				<path fill="none" stroke="#B5B5B6" stroke-linecap="round" stroke-linejoin="round" d="M29.437,722.754
					c0.005-0.01-3.704-1.694-3.626-1.848c0.388-0.762,17.146,4.589,17.364,4.158c0.599-1.175-23.239-10.474-22.686-11.559
					c0.007-0.015,25.228,11.723,25.425,11.336c0.681-1.336-33.315-16.452-33.104-16.867c0.52-1.021,35.005,16.532,35.518,15.526
					c0.077-0.151-37.134-18.824-37.095-18.9c0.194-0.381,39.85,20.372,40.538,19.023c0.827-1.624-39.87-19.917-39.709-20.232
					c0.649-1.273,41.694,20.383,42.657,18.492c0.934-1.832-43.595-21.336-43.24-22.032c0.297-0.584,39.645,17.936,39.864,17.506
					c0.368-0.723-26.625-13.542-26.615-13.561c0.706-1.385,32.847,13.796,33.251,13.002c0.423-0.83-22.316-10.697-22.044-11.231
					c0.279-0.549,23.012,8.869,23.446,8.017c0.313-0.615-23.173-11.64-23.105-11.772c0.226-0.442,21.785,7.516,22.192,6.716
					c0.251-0.492-20.478-9.998-20.302-10.344c0.185-0.362,22.027,10.923,22.523,9.95c0.049-0.097-16.574-8.339-16.531-8.423
					c0.434-0.851,21.217,9.495,21.528,8.884c0.297-0.584-20.837-10.216-20.675-10.534c0.081-0.158,16.717,6.779,16.922,6.376
					c0.385-0.755-17.952-8.099-17.528-8.932c0.381-0.746,17.563,6.475,17.595,6.413c0.092-0.181-14.311-7.288-14.31-7.29
					c0.401-0.787,17.833,8.325,18.178,7.648c0.116-0.227-17.939-8.744-17.779-9.059c0.225-0.439,20.998,7.356,21.419,6.529
					c0.074-0.144-19.219-8.891-18.854-9.606c0.025-0.051,17.191,5.749,17.277,5.579c0.354-0.692-15.641-7.717-15.539-7.917
					c0,0,17.706,7.145,17.978,6.611c0.235-0.462-20.563-9.434-20.142-10.263c0.501-0.982,22.147,8.356,22.31,8.036
					c0.401-0.787-23.098-10.879-22.737-11.586c0.261-0.513,22.222,8.347,22.561,7.683c0.342-0.672-20.85-10.126-20.647-10.521
					c0.267-0.524,24.728,9.665,25.252,8.637c0.324-0.636-24.279-11.743-24.025-12.241c0.136-0.267,26.396,11.039,26.562,10.714
					c0.402-0.79-24.044-11.284-23.652-12.052c0.227-0.445,28.277,12.413,28.919,11.153c0.089-0.176-28.449-13.761-28.152-14.344"/>
				<path fill="none" stroke="#3E3A39" stroke-linecap="round" stroke-linejoin="round" d="M33.139,827.519
					c0.137-0.27-11.193-5.548-11.13-5.672c0.06-0.116,4.258,0.23,4.298,0.152c0.094-0.185-5.691-2.742-5.627-2.867
					c0.018-0.035,6.706,1.597,6.72,1.569c0.107-0.21-2.724-1.19-2.644-1.347c0.065-0.128,2.997-1.673,3.011-1.701
					c0.063-0.124-4.204-1.928-4.117-2.098c0.037-0.073-2.978-5.276-2.895-5.438c0.002-0.006-0.41-0.207-0.409-0.209
					c0.096-0.188,5.809,1.655,5.929,1.419c0.162-0.318-11.861-5.818-11.77-5.997c0,0,5.476-0.535,5.481-0.546
					c0.156-0.305-6.526-3.032-6.408-3.265c0.146-0.288,9.584,0.235,9.613,0.18c0.054-0.106-8.13-3.804-7.993-4.073
					c0.136-0.266,8.12-0.18,8.255-0.445c0.125-0.245-10.16-4.715-9.973-5.082c0.046-0.089,7.282,1.047,7.362,0.89
					c0.132-0.26-6.694-3.274-6.639-3.383c0.197-0.386,12.135,1.534,12.169,1.467c0.151-0.297-10.95-5.344-10.854-5.53
					c0.102-0.2,7.792,2.413,7.947,2.108c0.008-0.015-7.342-3.137-7.098-3.616c0.162-0.316,8.573,0.945,8.639,0.815
					c0.265-0.52-12.941-6.211-12.786-6.515c0.051-0.102,16.721,3.735,16.746,3.687c0.142-0.279-10.097-4.411-9.8-4.994
					c0.312-0.611,16.242,7.457,16.553,6.846c0.283-0.555-20.179-9.844-20.001-10.191c0.291-0.57,23.02,10.128,23.406,9.371
					c0.3-0.589-16.532-8.181-16.434-8.374c0.474-0.931,21.533,7.394,21.98,6.516c0.144-0.282-21.9-10.213-21.518-10.964
					c0.533-1.045,29.571,12.613,30.068,11.638c0.319-0.626-24.176-12.248-24.148-12.304c0.301-0.591,27.575,11.792,27.687,11.571
					c0.302-0.591-24.544-11.571-24.167-12.313c0.8-1.571,34.439,15.482,35.145,14.097c0.259-0.507-25.177-11.289-24.555-12.511
					c0.396-0.776,28.504,11.435,28.625,11.196c0.327-0.642-27.854-13.128-27.424-13.973c0.012-0.024,37.587,15.693,37.87,15.137
					c0.471-0.923-28.804-13.347-28.267-14.402c0.388-0.76,34.435,16.164,35.198,14.666c0.098-0.192-25.839-12.85-25.711-13.1
					c0.27-0.529,30.234,13.63,30.357,13.388c0.174-0.342-29.886-14.836-29.728-15.146c0.425-0.834,33.287,16.564,33.848,15.464
					c0.265-0.518-23.913-12.14-23.895-12.175c0.315-0.619,16.981,5.362,17.051,5.227c0.09-0.177-13.016-5.826-12.689-6.465
					c0.107-0.212,9.264,0.32,9.438-0.023c0.097-0.19-5.445-2.772-5.444-2.774c0.02-0.038,3.864-1.342,3.912-1.435
					c0.107-0.212-0.791-0.182-0.701-0.356c0.031-0.062-0.244-3.643-0.175-3.778c0.029-0.059-4.216-2.051-4.177-2.128
					c0.056-0.109,4.032-0.613,4.057-0.661c0.006-0.012-1.146-0.565-1.139-0.58"/>
				<path fill="none" stroke="#3E3A39" stroke-linecap="round" stroke-linejoin="round" d="M19.881,855.319
					c0.001-0.002-0.929-0.441-0.916-0.467c0.094-0.185,2.831-3.116,2.884-3.22c0.082-0.162-1.788-0.723-1.711-0.872
					c0-0.001,1.869-0.632,1.882-0.659c0.088-0.172-8.769-4.401-8.742-4.454c0.106-0.208,7.673,1.597,7.778,1.393
					c0.01-0.021-8.854-4.499-8.849-4.509c0.049-0.097,10.485,4.141,10.659,3.8c0.115-0.226-9.674-4.874-9.651-4.917
					c0.151-0.298,10.396,2.608,10.62,2.168c0.165-0.324-11.366-5.637-11.303-5.76c0.054-0.106,7.828,1.282,7.868,1.204
					c0.146-0.287-11.235-5.716-11.232-5.724c0.433-0.849,20.585,7.161,20.833,6.675c0.333-0.655-17.661-8.466-17.445-8.889
					c0.282-0.554,23.215,8.982,23.652,8.122c0.307-0.601-22.682-11.394-22.615-11.523c0.292-0.572,27.866,10.914,28.395,9.877
					c0.284-0.557-23.041-11.248-22.842-11.639c0.226-0.443,26.804,13.629,27.409,12.44c0.059-0.115-20.363-10.25-20.312-10.35
					c0.58-1.138,28.125,13.274,28.541,12.457c0.398-0.782-27.49-13.469-27.272-13.896c0.132-0.259,26.822,12.25,27.158,11.591
					c0.473-0.928-22.498-10.172-21.976-11.196c0.579-1.137,26.295,10.963,26.342,10.87c0.114-0.225-18.966-9.659-18.964-9.662
					c0.57-1.118,25.097,12.386,25.587,11.424c0.144-0.282-22.629-11.037-22.43-11.429c0.364-0.713,33.294,14.272,33.979,12.93
					c0.094-0.184-24.455-11.314-23.992-12.225c0.044-0.085,28.221,11.514,28.365,11.229c0.463-0.908-21.533-10.642-21.4-10.904
					c0.001,0,28.451,13.048,28.896,12.175c0.319-0.628-27.541-12.611-26.966-13.74c0.772-1.516,33.586,14.403,33.837,13.91
					c0.535-1.05-29.53-13.86-29.051-14.803c0.3-0.587,25.296,10.034,25.684,9.273c0.3-0.587-18.425-8.952-18.248-9.298
					c0.197-0.387,18.573,6.191,18.96,5.432c0.157-0.309-14.017-6.839-13.895-7.08c0.068-0.133,13.564,4.296,13.647,4.134
					c0.13-0.256-10.074-4.819-9.947-5.068c0.075-0.148,9.998,2.042,10.212,1.621c0.019-0.035-10.42-5.162-10.36-5.278
					c0.172-0.339,9.559,2.222,9.715,1.915c0.086-0.169-8.485-4.123-8.404-4.282c0.133-0.261,6.22-0.198,6.229-0.217
					c0.044-0.087-5.256-2.602-5.225-2.662c0.022-0.045,2.695-0.27,2.746-0.369c0.009-0.016-0.694-0.35-0.692-0.353"/>
			</g>
		</g>
	</g>
</g>
</svg>
